/* XPM */
static char *bee_down[] = {
/* columns rows colors chars-per-pixel */
"32 32 114 2 ",
"   c #3F4D51",
".  c #444F53",
"X  c #445456",
"o  c #4F5557",
"O  c #445855",
"+  c #44545A",
"@  c #4D5458",
"#  c #475C5C",
"$  c #48595D",
"%  c #505752",
"&  c #525853",
"*  c #5A5A5E",
"=  c #4C635C",
"-  c #4F695F",
";  c #5B625B",
":  c #626356",
">  c #6E6F5A",
",  c #7C755B",
"<  c #475B61",
"1  c #4A5E64",
"2  c #625F61",
"3  c #4E666C",
"4  c #5C6565",
"5  c #516369",
"6  c #51696F",
"7  c #5A6E6B",
"8  c #5C7C62",
"9  c #5C726C",
"0  c #5E6F71",
"q  c #57747A",
"w  c #5A777D",
"e  c #5C797E",
"r  c #6F6565",
"t  c #766A68",
"y  c #627373",
"u  c #6C787D",
"i  c #81706D",
"p  c #8B7671",
"a  c #5D8166",
"s  c #5F8468",
"d  c #61866A",
"f  c #648C6A",
"g  c #688F6B",
"h  c #67916C",
"j  c #69946E",
"k  c #6D9A6F",
"l  c #6D9B70",
"z  c #72A174",
"x  c #79AB79",
"c  c #7FB47C",
"v  c #968660",
"b  c #998760",
"n  c #AB9263",
"m  c #B09664",
"M  c #82B97F",
"N  c #C3A367",
"B  c #C8A668",
"V  c #CDA969",
"C  c #DEB36C",
"Z  c #FDCA72",
"A  c #6F7B80",
"S  c #717C82",
"D  c #65858A",
"F  c #67888D",
"G  c #788288",
"H  c #6A8D91",
"J  c #858F93",
"K  c #899297",
"L  c #8B9499",
"P  c #8F989C",
"I  c #909A9F",
"U  c #84BB81",
"Y  c #949DA1",
"T  c #9CA4A8",
"R  c #84AFB2",
"E  c #86B3B5",
"W  c #88B6B9",
"Q  c #A5ACAF",
"!  c #AFB6B9",
"~  c #B6BCBF",
"^  c #8AC485",
"/  c #8ECB89",
"(  c #91CE8B",
")  c #95D58E",
"_  c #99DB91",
"`  c #9EE195",
"'  c #A0E597",
"]  c #A2E798",
"[  c #A5EB9B",
"{  c #A8EF9D",
"}  c #AAF29E",
"|  c #ACF6A1",
" . c #AEF8A2",
".. c #B3FFA6",
"X. c #8FBEC0",
"o. c #92C2C3",
"O. c #9ACDCE",
"+. c #9FD3D4",
"@. c #BBC1C3",
"#. c #A6DDDD",
"$. c #A8E0DF",
"%. c #A8E0E0",
"&. c #C5CACD",
"*. c #C8CCCF",
"=. c #CBCFD1",
"-. c #CDD1D3",
";. c #D2D5D7",
":. c #D6D9DB",
">. c #D8DBDD",
",. c #E1E3E5",
"<. c #E6E8E9",
"1. c #ECEEEF",
"2. c #F3F4F5",
"3. c #FFFFFF",
/* pixels */
"................................................................",
"................................................................",
"................................................................",
"................................................................",
"..........................) g X O g ) ..........................",
"........................^ = 2 t t 2 = ^  .......................",
"......................) O . o o o o . O / ......................",
"....................[ 8 n V V V V V V m 8 [ ....................",
"....................U ; N B B B B B B N > H ....................",
"..................} a . o & @ @ o o o % O a [ ..................",
"..............{ M d X X * i p p p p i * O O a c { ..............",
"............[ f e E o.R q @ * * * * O e E o.E A d [ ............",
"......| _ _ k D #.#.#.%.#.q & b b % w +.%.%.#.#.H l _ ` } ......",
"..../ d y y $ w W #.#.#.#.R ; C C ; W $.#.#.#.X.e + y y d ( ....",
"..U 0 @.1.2.:.K 5 H O.#.#.O.< & o # O.#.#.O.H 5 K ;.2.1.@.0 M ..",
") 7 :.3.3.3.3.3.;.S 6 R #.O.1 r r 5 O.#.R 6 S =.3.3.3.3.3.:.7 ) ",
"h T 3.3.3.3.3.3.3.2.Q 5 H X.1 2 r 5 X.F 5 Q 2.3.3.3.3.3.3.3.T h ",
"= -.3.3.3.3.3.3.3.3.3.;.u 3 + : ;   3 u ;.3.3.3.3.3.3.3.3.3.-.= ",
"$ >.3.3.3.3.3.3.3.3.3.3.1.I X n n X P 1.3.3.3.3.3.3.3.3.3.3.>.$ ",
"- *.3.3.3.3.3.3.3.3.3.3.3.2.I     T 2.3.3.3.3.3.3.3.3.3.3.3.*.- ",
"l Y 3.3.3.3.3.3.3.3.3.2.=.J 4 , , 4 L ;.3.3.3.3.3.3.3.3.3.3.Y k ",
"_ 9 ;.3.3.3.3.3.3.<.! S # % B Z Z N % # G ~ 1.3.3.3.3.3.3.=.9 _ ",
"..^ 9 ~ 1.2.,.@.J 9 j / _ g > v v > h ) ^ f 0 P &.<.2.<.! 7 ^  .",
"....( f y y 9 h U '  .....} h j h s | ....| ` c f 9 y 9 f ) ....",
"......| ' _ { ............| f _ ` d | ..........| [ _ ]  .......",
".........................._ f | | f _ ..........................",
"........................] f ^ ....^ d [ ........................",
"........................z x  .......x z ........................",
"................................................................",
"................................................................",
"................................................................",
"................................................................"
};
