/* XPM */
static char *honey_1[] = {
/* columns rows colors chars-per-pixel */
"32 32 124 2 ",
"   c #FF9900",
".  c #FF9C09",
"X  c #FE9B16",
"o  c #FFA402",
"O  c #FFAC03",
"+  c #FFA20E",
"@  c #FFB304",
"#  c #FFBB05",
"$  c #FFA511",
"%  c #FDA31F",
"&  c #FFAD1B",
"*  c #FD9D37",
"=  c #FD9E3E",
"-  c #FFB223",
";  c #FFBB2D",
":  c #F8A93C",
">  c #F8B93C",
",  c #FFC107",
"<  c #FCC325",
"1  c #FFC236",
"2  c #F8CA3D",
"3  c #968D54",
"4  c #97925A",
"5  c #989459",
"6  c #999967",
"7  c #9B9C6B",
"8  c #FD9F40",
"9  c #FBA352",
"0  c #EEBB59",
"q  c #F1B652",
"w  c #F2B35D",
"e  c #FFCA40",
"r  c #F8CC4E",
"t  c #FFD44E",
"y  c #FCC555",
"u  c #FDD653",
"i  c #FDD659",
"p  c #F7DA5F",
"a  c #F9D95B",
"s  c #DFD977",
"d  c #EBC262",
"f  c #F6DB63",
"g  c #F8DB61",
"h  c #F0DF6D",
"j  c #F0DF77",
"k  c #EFE06E",
"l  c #EBE272",
"z  c #E1E97F",
"x  c #A1A78A",
"c  c #A4AE95",
"v  c #9CD28B",
"b  c #9ED88E",
"n  c #9FD595",
"m  c #A6E395",
"M  c #A7E299",
"N  c #ABED9B",
"B  c #ADF09D",
"V  c #BEF69D",
"C  c #BFFA9E",
"Z  c #A3D8A0",
"A  c #A7DCAE",
"S  c #ACE6AD",
"D  c #B3FFA6",
"F  c #BAFBA1",
"G  c #B2F5AE",
"H  c #BDF7AD",
"J  c #AEE5B1",
"K  c #ACE0BB",
"L  c #B1E8BB",
"P  c #B5F9B4",
"I  c #BAFCB6",
"U  c #B5F6BB",
"Y  c #B5F8B8",
"T  c #BBFCBB",
"R  c #D5DF87",
"E  c #F2DD89",
"W  c #CCE88F",
"Q  c #DFEB85",
"!  c #D0E48B",
"~  c #D1EA8A",
"^  c #D3F18E",
"/  c #DAED98",
"(  c #C9F596",
")  c #C6F799",
"_  c #C6F899",
"`  c #D1F190",
"'  c #E1E980",
"]  c #EBE48F",
"[  c #E7E797",
"{  c #E8CAA7",
"}  c #E7CCAD",
"|  c #CAEEAF",
" . c #D7EFA4",
".. c #DCEAA5",
"X. c #C1F5AB",
"o. c #C4F3B9",
"O. c #C0FBBE",
"+. c #E8E6AF",
"@. c #E3E8B2",
"#. c #AFE2C3",
"$. c #B9EDD6",
"%. c #BDF0DF",
"&. c #BEF1E4",
"*. c #DEDBCE",
"=. c #E1D6C2",
"-. c #CAEFCC",
";. c #C9F0C7",
":. c #C1FAC5",
">. c #C8F7CA",
",. c #D7EFDE",
"<. c #CCF5D5",
"1. c #CBF3DA",
"2. c #C7F5E5",
"3. c #C9F7E0",
"4. c #C5F9E6",
"5. c #C4F5ED",
"6. c #CAF3EC",
"7. c #C4F9EC",
"8. c #D0F3ED",
"9. c #C4F4F3",
"0. c #CAF7F3",
"q. c #C7F8F7",
"w. c #C9F7FC",
"e. c #C8F8FA",
/* pixels */
"D D D D D D D D D D D D D D D D D D D D D D D D D D D D D D D D ",
"D D D D D D D D D D D D D D D D D D D D D D D D D D D D D D D D ",
"D D D D D D D D D D D D D D D D D D D D D D D D D D D D D D D D ",
"D D D D D D D D D D D D D D D D D D D D D D D D D D D D D D D D ",
"D D D D D D D D D D D D D D D D D D D D D D D D D D D D D D D D ",
"D D D D D D D B N P P U U D B F G P Y Y P P G D D D D D D D D D ",
"D D D D D D D N Z $.%.9.9.S m M L &.5.9.5.&.J N B D D D D D D D ",
"D D D D D D D M v Z Z A A v v v n K #.#.#.#.n v b D D D D D D D ",
"D D D D D D D v 3 3 4 5 5 3 3 3 3 6 7 7 x c 4 3 v D D D D D D D ",
"D D D D D D D F u j  .Q ' l l l l z [ ..,.8.+.i F D D D D D D D ",
"D D D D D D ( f ] >.7.I F D F D T :.4.4.3.5.0.@.f ( D D D D D D ",
"D D D D D ) g / <.1.O.F F F F T q.e.w.w.w.w.e.0.[ f _ D D D D D ",
"D D D D D f r R X.H F V V V V V o.o.-.1.6.5.6.2.;...h D D D D D ",
"D D D D ~ u % q d d s ~ W ! ! ! W F | 6.w.9.e.e.w.6.E ^ D D D D ",
"D D D D l 1   X X + < 2 2 > : : 8 0 w { *.=.} *.*.} y l D D D D ",
"D D D D a -       O , , , #         . * 8 8 8 8 9 = - a D D D D ",
"D D D D t &         # , , o   , , #                 & t D D D D ",
"D D D D a -         o o o   # , , , o               - a D D D D ",
"D D D D l 1         o o o   # , , # O   o o         > l D D D D ",
"D D D D ~ t .       # , , o   , , #   @ , , #     . t ^ D D D D ",
"D D D D D g ;     O , , , #         o # , , ,     ; p D D D D D ",
"D D D D D ` t $     , , , O   @ @ O   # , , #   + t ^ D D D D D ",
"D D D D D D h 2     O # @   O , , ,   o # @     e k D D D D D D ",
"D D D D D D _ i ;           # , , , O         ; u C D D D D D D ",
"D D D D D D D ` t &         o # , #         & u ` D D D D D D D ",
"D D D D D D D D z t $         o o o       $ t ' D D D D D D D D ",
"D D D D D D D D D l t & & & & & & & & & & r l D D D D D D D D D ",
"D D D D D D D D D F h u t t t u u t t t t h D D D D D D D D D D ",
"D D D D D D D D D D D D D D D D D D D D D D D D D D D D D D D D ",
"D D D D D D D D D D D D D D D D D D D D D D D D D D D D D D D D ",
"D D D D D D D D D D D D D D D D D D D D D D D D D D D D D D D D ",
"D D D D D D D D D D D D D D D D D D D D D D D D D D D D D D D D "
};
