/* XPM */
static char *tree[] = {
/* columns rows colors chars-per-pixel */
"32 32 145 2 ",
"   c #0B7E39",
".  c #227C3C",
"X  c #36703B",
"o  c #416A39",
"O  c #337D40",
"+  c #4C7B43",
"@  c #5A7844",
"#  c #6A7345",
"$  c #747848",
"%  c #876B47",
"&  c #886E4A",
"*  c #946443",
"=  c #9F6B46",
"-  c #84784B",
";  c #8C7E4E",
":  c #8D7F54",
">  c #947C50",
",  c #9D7C54",
"<  c #A26E48",
"1  c #A7754E",
"2  c #AB764C",
"3  c #B0794F",
"4  c #AB7C52",
"5  c #B37E52",
"6  c #008339",
"7  c #0F853D",
"8  c #028B3E",
"9  c #088A3F",
"0  c #018F40",
"q  c #019443",
"w  c #0A9545",
"e  c #019A46",
"r  c #019E49",
"t  c #0C9A49",
"y  c #149B46",
"u  c #218541",
"i  c #2D8845",
"p  c #378444",
"a  c #00A34B",
"s  c #06A84E",
"d  c #09AB4F",
"f  c #0BAD50",
"g  c #0EB052",
"h  c #10B152",
"j  c #17B856",
"k  c #1ABA57",
"l  c #1EBE59",
"z  c #20A94D",
"x  c #2AB553",
"c  c #2DB955",
"v  c #2BBE58",
"b  c #31B955",
"n  c #32BF59",
"m  c #4C8448",
"M  c #5DA156",
"N  c #24C35C",
"B  c #2BC45D",
"V  c #2BCA5F",
"C  c #34C25A",
"Z  c #32CB5E",
"A  c #3BCB5F",
"S  c #2ECD60",
"D  c #32CE61",
"F  c #3ECD60",
"G  c #34D263",
"H  c #39D665",
"J  c #3CD967",
"K  c #3EDB68",
"L  c #4CC761",
"P  c #43D763",
"I  c #48D163",
"U  c #41DB67",
"Y  c #4ADE67",
"T  c #40DD69",
"R  c #4EDC68",
"E  c #5BD76C",
"W  c #54DD6B",
"Q  c #5BDB6E",
"!  c #6BCC70",
"~  c #6FD676",
"^  c #67DE73",
"/  c #6CDC75",
"(  c #74D779",
")  c #79D87B",
"_  c #46E26B",
"`  c #4AE66D",
"'  c #4DE86E",
"]  c #5CE06F",
"[  c #53EA6F",
"{  c #5DE370",
"}  c #54ED71",
"|  c #5AEC71",
" . c #5CF374",
".. c #62E272",
"X. c #6AE276",
"o. c #62EB74",
"O. c #6EE379",
"+. c #71E37A",
"@. c #79E47F",
"#. c #74E97D",
"$. c #61F376",
"%. c #62FA77",
"&. c #6DF27B",
"*. c #64FC79",
"=. c #68FF7B",
"-. c #8B8351",
";. c #928F5E",
":. c #AB8055",
">. c #B48155",
",. c #B58659",
"<. c #BE8A5B",
"1. c #B58F60",
"2. c #AF9261",
"3. c #A59A66",
"4. c #8FA462",
"5. c #9AA86E",
"6. c #99B375",
"7. c #9BB878",
"8. c #A6A56D",
"9. c #A9B174",
"0. c #A7BC7B",
"q. c #8FC27B",
"w. c #7BE580",
"e. c #9BC580",
"r. c #9CCF86",
"t. c #83DD82",
"y. c #8CDE87",
"u. c #A3D98E",
"i. c #84E384",
"p. c #89E287",
"a. c #82EF85",
"s. c #8DE48A",
"d. c #93E68D",
"f. c #97E790",
"g. c #97EB91",
"h. c #9CED94",
"j. c #93F290",
"k. c #9FF197",
"l. c #A7E293",
"z. c #AAE897",
"x. c #A0F097",
"c. c #A3F29A",
"v. c #AAF69E",
"b. c #AEF9A1",
"n. c #B3FFA6",
/* pixels */
"n.n.n.n.n.n.n.n.n.n.v.s.( ) g.n.n.n.n.n.n.n.n.n.n.n.n.n.n.n.n.n.",
"n.n.n.n.n.n.n.n.n.v.~ | %.%.o.x.n.n.n.n.n.n.n.n.n.n.n.n.n.n.n.n.",
"n.n.n.n.n.n.n.n.n.i.| _ H } *.@.d.p.x.n.n.b.c.h.h.b.n.n.n.n.n.n.",
"n.n.n.n.n.n.n.n.n.#._ s a d K | |  .W d.j.w.$.$.| ..s.n.n.n.n.n.",
"n.n.n.n.b.b.n.g.i.&.V a a a d ' ' _ %.$. .} } *.=.*.Q b.n.n.n.n.",
"n.n.n.p.o.&.a.+. . .V a a a a k d s J _ j f f l  .=.E v.n.n.n.n.",
"n.n.c.{ *. . .| [ k d a a a a a a r s s a a a s ' Y ) n.n.n.n.n.",
"n.n.k. .K f f S ' d a a a a s g d N V h a a a l ' P Q p.n.n.n.n.",
"n.n.c.o.B a a k T g a a a a h G ' } S S f a a s s l  .| f.n.n.n.",
"n.n.n.t.Z s a D g a a a a a a s S k a s s a a a f H *.W f.n.n.n.",
"n.b.s.O.[ V a l s a a a a a a a a a a a a a a a f G I y.b.n.n.n.",
"n.w. .D g d a d s a a a a a a a a a a a a a a a r a D i.n.n.n.n.",
"n.w. .J s a a a a a a a a a a a t r a a a a a a a g ` E b.b.n.n.",
"n.d.[ T d a a a a a a r r q 8 w X w r a a a a a a k U R w.b.n.n.",
"b.w._ d a a a a a a a e q q 6 X o 8 q a a a a a a a f K } y.n.n.",
"c.o.H a a a q e q q a a a a 7 - O r e r e q q q e a a h  .^ b.n.",
"k.$. .N f s q 8 0 8 0 r a q + :.u a e 8 8 q 8 0 r a a Z *.^ n.n.",
"v.O. . .} v r a r r a a a 0 ; :.u a a e t a r r e r B [ W d.n.n.",
"n.v.g.t.[ c 8 8 0 w m p 0 . 4 4 . w i m i r a q y C L ! f.n.n.n.",
"n.n.n.c.| | F A y 6 + >.$ @ 5 5 # -.> O q a a e 9 b t.n.n.n.n.n.",
"n.n.n.n.g.+.{ R z 6   ; 5 ,.5 <.<.,.O 6 6 w 8 6 6 n X.v.n.n.n.n.",
"n.n.n.n.n.n.w.| C 6 6 @ 3 3 3 2 5 ; 6 6 6 F x x A  ./ n.n.n.n.n.",
"n.n.n.n.n.n.p.$. .A n M 4 2 3 2 5 4.M v L *.Y ~ / ( x.n.n.n.n.n.",
"n.n.n.n.n.n.c./ | | +.q.5 5 5 5 <.9.a. . .*.] c.n.n.n.n.n.n.n.n.",
"n.n.n.n.n.n.n.b.x.c.b.0.5 >.<.5 >.3.b.c.d.i.h.n.n.n.n.n.n.n.n.n.",
"n.n.n.n.n.n.n.n.n.n.l.2.<.5 5 1 >.1.l.n.n.n.n.n.n.n.n.n.n.n.n.n.",
"n.n.n.n.n.n.n.n.n.v.8.1 = = = * < 5 3.l.n.n.n.n.n.n.n.n.n.n.n.n.",
"n.n.n.n.n.n.n.n.z.5.5.7.u.6.* % 5.;., : r.n.n.n.n.n.n.n.n.n.n.n.",
"n.n.n.n.n.n.n.n.z.z.n.n.n.b.7.& l.n.z.u.u.b.n.n.n.n.n.n.n.n.n.n.",
"n.n.n.n.n.n.n.n.n.n.n.n.n.n.n.7.e.n.n.n.n.n.n.n.n.n.n.n.n.n.n.n.",
"n.n.n.n.n.n.n.n.n.n.n.n.n.n.n.n.l.b.n.n.n.n.n.n.n.n.n.n.n.n.n.n.",
"n.n.n.n.n.n.n.n.n.n.n.n.n.n.n.n.n.n.n.n.n.n.n.n.n.n.n.n.n.n.n.n."
};
