/* XPM */
static char *tree2[] = {
/* columns rows colors chars-per-pixel */
"32 32 10 1 ",
"  c #3A3318",
". c #4C3E16",
"X c #485200",
"o c #515C00",
"O c #544418",
"+ c #616E09",
"@ c #614F20",
"# c #828B23",
"$ c #A19F32",
"% c #B3FFA6",
/* pixels */
"%%%%%%%%%%%%%%%%%%%%%%%%%%%%%%%%",
"%%%%%%%%%%%%%%%XX%%%%%%%%%%%%%%%",
"%%%%%%%%%%%%%%X#+X%%%%%%%%%%%%%%",
"%%%%%%%%%%%%%X$##+X%%%%%%%%%%%%%",
"%%%%%%%%%%%%X$$$##oX%%%%%%%%%%%%",
"%%%%%%%%%%%X$$$$##+oX%%%%%%%%%%%",
"%%%%%%%%%%X$$$#####+oX%%%%%%%%%%",
"%%%%%%%%%X#####$$##++oX%%%%%%%%%",
"%%%%%%%%X+#X######++X+oX%%%%%%%%",
"%%%%%%%%%XX+##+#+++o+XX%%%%%%%%%",
"%%%%%%%%%%XX++X+oXooXX%%%%%%%%%%",
"%%%%%%%%%X+oXXoXXoXXooX%%%%%%%%%",
"%%%%%%%%X$#++++oo++++ooX%%%%%%%%",
"%%%%%%%X$$####++++##++ooX%%%%%%%",
"%%%%%%X$$##$$########+++oX%%%%%%",
"%%%%%X+##X#$###$$####+Xo+oX%%%%%",
"%%%%%%X+X+###+####+##+oXoX%%%%%%",
"%%%%%%%XoX+++X++++X++oXoX%%%%%%%",
"%%%%%%X++oXXXoXXXXoXXXoooX%%%%%%",
"%%%%%X$#+++++++++++oooo+ooX%%%%%",
"%%%%X$######+++####++++++ooX%%%%",
"%%%X$###$$$#####$$#####+++ooX%%%",
"%%X++X#$####+##$$##+#++++oXooX%%",
"%%%XX+###X#+X+####+X++Xo++oXX%%%",
"%%%%%X++X++oXo++++oXo++XooX%%%%%",
"%%%%%%XX%XXX XXXXXX XXX%XX%%%%%%",
"%%%%%%%%%%% O      . %%%%%%%%%%%",
"%%%%%%%%%%% @@@OOOO. %%%%%%%%%%%",
"%%%%%%%%%% O@@OOOOO.. %%%%%%%%%%",
"%%%%%%%%% O@@OOOOOOO.. %%%%%%%%%",
"%%%%%%%%%              %%%%%%%%%",
"%%%%%%%%%%%%%%%%%%%%%%%%%%%%%%%%"
};
