/* XPM */
static char *cactus[] = {
/* columns rows colors chars-per-pixel */
"32 32 94 2 ",
"   c #3E721D",
".  c #3F741F",
"X  c #3E6E27",
"o  c #3E6C2C",
"O  c #3A6131",
"+  c #3F6439",
"@  c #40731E",
"#  c #427721",
"$  c #477C25",
"%  c #44732A",
"&  c #4B7F29",
"*  c #457234",
"=  c #280D47",
"-  c #281147",
";  c #281347",
":  c #281546",
">  c #281647",
",  c #291747",
"<  c #281846",
"1  c #2A1148",
"2  c #2B2644",
"3  c #2C2D43",
"4  c #2B2A44",
"5  c #2D2A46",
"6  c #2D2548",
"7  c #2E2748",
"8  c #2E2C48",
"9  c #312E48",
"0  c #2D3940",
"q  c #2F3C41",
"w  c #323448",
"e  c #333849",
"r  c #353D48",
"t  c #3A4749",
"y  c #3C4849",
"u  c #3E4F49",
"i  c #3E5149",
"p  c #415449",
"a  c #40554A",
"s  c #43594B",
"d  c #455B4A",
"f  c #455E4A",
"g  c #4B6C46",
"h  c #48614B",
"j  c #49634B",
"k  c #49654C",
"l  c #4E6B4C",
"z  c #4E6C4C",
"x  c #4F704C",
"c  c #50704D",
"v  c #51744C",
"b  c #54784D",
"n  c #557B4E",
"m  c #577B4E",
"M  c #4B812A",
"N  c #4D832C",
"B  c #538B32",
"V  c #578D35",
"C  c #5A9139",
"Z  c #5C923B",
"A  c #5D953C",
"S  c #5E963D",
"D  c #60993F",
"F  c #59834E",
"G  c #5B824F",
"H  c #5C854E",
"J  c #5D9340",
"K  c #5E8950",
"L  c #609247",
"P  c #629A40",
"I  c #649D43",
"U  c #669F45",
"Y  c #639350",
"T  c #649150",
"R  c #649451",
"E  c #689951",
"W  c #6B9D52",
"Q  c #66A045",
"!  c #69A247",
"~  c #69A348",
"^  c #6CA64B",
"/  c #6EA84D",
"(  c #70AA4E",
")  c #6BA052",
"_  c #6FA553",
"`  c #70A853",
"'  c #72AC50",
"]  c #74AF53",
"[  c #71A854",
"{  c #70A954",
"}  c #74AD54",
"|  c #76AF54",
" . c #76B154",
".. c #77B255",
/* pixels */
"= = = = = = = = = = = = : c W ..] W x : = = = = = = = = = = = = ",
"= = = = = = = = = = = : R ............Y 3 = = = = = = = = = = = ",
"= = = = = = = = = = = F ..............I   0 = = = = = = = = = = ",
"= = = = = = = = = = 6  ...............' Z 5 = = = a v k 7 = = = ",
"= = = = = = = = = - + / ..................f = , Y ......_ y = = ",
"= = = = = = = = = 4   S ..................z = m ..........) = = ",
"= = = = = = = = = = g ....................z = W ..........I O = ",
"= = = = = = = = = = l ............' N Q ..z = { ..........S X < ",
"= = = = = = = = = = l ............| & U ..l = { ............d = ",
"= = = = = = = = = = z ....................c = _ $ B ........d = ",
"= = = 1 u k r = = = z ....................l = _ S U ........d = ",
"= = r W ......H = = z ....................c = { ............d = ",
"= = E ..........v = z ....................l = { ............f = ",
"= e ............W = z / V ] ..............l = { ......( V ' d = ",
"= s ............{ = l Q @ ^ ..............x = _ ......U @ ^ d = ",
": o P ..........{ = z ....................l 1 | ........| ..d = ",
": o P ..........{ = z ............| ......l F ..............d = ",
"= d ..........N M = z ..........| # Z ....` ................t = ",
"= d ..........P J = z ............C ~ ....................W = = ",
"= d ..............r z ..................................| u = = ",
"= p ..............W m ............................S ^ _ u = = = ",
"= 7 ............................................... * 7 = = = = ",
"= = K ..............' B / ................E b h w 4 - = = = = = ",
"= = 7 L & ( ........^ # ~ ................l = = = = = = = = = = ",
"= = = 0 % ^ ..............................z = = = = = = = = = = ",
"= = = = = w c Y { ..................../ ..z = = = = = = = = = = ",
"= = = = = = = = = 9 b ..............!   I z = = = = = = = = = = ",
"= = = = = = = = = = l ................S ' z = = = = = = = = = = ",
"= = = = = = = = = = z ....................l = = = = = = = = = = ",
"= = = = = = = = = = k ....................h = = = = = = = = = = ",
"= = = = = = = = = = 1 F ................F : = = = = = = = = = = ",
"= = = = = = = = = = = = 8 h n G G b h 5 = = = = = = = = = = = = "
};
