/* XPM */
static char *planet[] = {
/* columns rows colors chars-per-pixel */
"32 32 138 2 ",
"   c #7B2F3E",
".  c #7D303E",
"X  c #280D47",
"o  c #2C0D47",
"O  c #360F46",
"+  c #2F1147",
"@  c #2C1647",
"#  c #2F1C47",
"$  c #3B1546",
"%  c #381646",
"&  c #513A48",
"*  c #622442",
"=  c #644045",
"-  c #6B4F48",
";  c #7C4C42",
":  c #6A5148",
">  c #6D5148",
",  c #8D363B",
"<  c #9F3E36",
"1  c #90383A",
"2  c #983C38",
"3  c #B6482E",
"4  c #BF4C2A",
"5  c #A24035",
"6  c #A64034",
"7  c #A64234",
"8  c #AE4431",
"9  c #AF4631",
"0  c #AD4432",
"q  c #B64E30",
"w  c #B36C3A",
"e  c #B0793F",
"r  c #BE7F38",
"t  c #DA5717",
"y  c #DB5816",
"u  c #D1541F",
"i  c #D2551E",
"p  c #D5561C",
"a  c #D85719",
"s  c #E75E02",
"d  c #E65D04",
"f  c #E85E00",
"g  c #E25C0B",
"h  c #E45D08",
"j  c #E25B0D",
"k  c #E35C0C",
"l  c #E15F10",
"z  c #DA6B1F",
"x  c #EA6402",
"c  c #EA6702",
"v  c #EA6706",
"b  c #EB6903",
"n  c #EB6C03",
"m  c #EC6C04",
"M  c #EC6D04",
"N  c #EC6E04",
"B  c #EB6E0B",
"V  c #EC6F0C",
"C  c #EC7004",
"Z  c #EC7205",
"A  c #EE7706",
"S  c #EF7B07",
"D  c #EF7C07",
"F  c #F07F08",
"G  c #EE7B15",
"H  c #EF7D16",
"J  c #C04D29",
"K  c #C55026",
"L  c #CE5321",
"P  c #CA5024",
"I  c #D05320",
"U  c #DA6E22",
"Y  c #CF702D",
"T  c #C77431",
"R  c #8E5A40",
"E  c #885C42",
"W  c #9B7949",
"Q  c #9E7B49",
"!  c #A67B46",
"~  c #B27F41",
"^  c #F08008",
"/  c #F18309",
"(  c #F3890A",
")  c #F28A0A",
"_  c #F38B0B",
"`  c #F38C0B",
"'  c #F48F0C",
"]  c #F4900C",
"[  c #EB871A",
"{  c #F38D12",
"}  c #F08D17",
"|  c #F0831A",
" . c #F59410",
".. c #F59512",
"X. c #F69A17",
"o. c #F2971A",
"O. c #F4941E",
"+. c #F69E1A",
"@. c #F1981C",
"#. c #F7A01D",
"$. c #C28037",
"%. c #C28238",
"&. c #D38D31",
"*. c #D18C34",
"=. c #EC9721",
"-. c #F39325",
";. c #F59B2B",
":. c #F59C2B",
">. c #F8A321",
",. c #F8A624",
"<. c #F9AA27",
"1. c #F6A02E",
"2. c #F0A62D",
"3. c #F9AC2A",
"4. c #FAAF2E",
"5. c #E4A337",
"6. c #E3A53B",
"7. c #F8A934",
"8. c #F8AA35",
"9. c #F9AF38",
"0. c #FAB332",
"q. c #FBB433",
"w. c #FBB534",
"e. c #FBB838",
"r. c #FCBB3B",
"t. c #A48149",
"y. c #B58F4A",
"u. c #DDAF4B",
"i. c #EAB343",
"p. c #E8B749",
"a. c #E9BA4D",
"s. c #ECBC4C",
"d. c #FDC344",
"f. c #FDC246",
"g. c #FEC546",
"h. c #FEC649",
"j. c #FFCB4B",
"k. c #FFCC4D",
/* pixels */
"X X X X X X X X X X X X X X X X X X X X X X X X X X X X X X X X ",
"X X X X X X X X X X X X X X X X X X X X X X X X X X X X X X X X ",
"X X X X X X X X X X X X X X X X X X X X X X X X X X X X X X X X ",
"X X X X X X X X X X X X X X X X X X X X X X X X X X X X X X X X ",
"X X X X X X X X X X X X X X X X X X X X X X X X X X X X X X X X ",
"X X X X X X X X X X X X X X X X X X X X X X X X X X X X X X X X ",
"X X X X X X X X X X X X X > t.y.y.t.- X X X X X X X X X X X X X ",
"X X X X X X X X X X @ Q a.k.k.k.k.k.k.a.e 7 4 u y j j p J 1 X X ",
"X X X X X X X X X & u.k.k.k.k.k.k.k.w.] ] [ k f x b Z Z x f P O ",
"X X X X X X X X & s.k.k.k.k.k.k.k.r.' ] ] ] } q 3 p f b ^ x f 2 ",
"X X X X X X X # 5.j.k.k.k.k.k.k.e...] ] ] ] ] 6.@ O u f Z Z f 8 ",
"X X X X X X X $.] ..4.<.+.,.q.#.] ' ] ] ] ] ] g.Q X u f F m f 1 ",
"X X X X X X X o.] ] ] ] ] ] ] ] ] ] ] ] ] ' >.k.a.1 x m ( f a % ",
"X X X X X X R ] ] ] ] ] ] ] ] ] ] ] ] ..3.4.h.k.9.h m ' b f   X ",
"X X X X X . z ] ] ] ] ] ] ] ] ] ] ` ..d.k.k.k.1.x A ' m f 7 X X ",
"X X X X 5 d U ] ] ] ] ] ] ] ] ] #.4.d.k.k.f.[ b ^ _ m f 0 X X X ",
"X X X 8 x x Y q.X.] ] ] >.,.3.8.k.k.k.k.1.b A ] ( b d < X X X X ",
"X X 7 x C L ! k.k.d.q.d.k.k.k.k.k.j.7.V x ^ ` / b l   X X X X X ",
"X   x D s * : j.k.k.k.k.k.k.k.h.:.B x S ] ] S f [ ; o X X X X X ",
"% t N Z g + X i.k.k.k.j.j.8.[ b b D ` ' ^ x B 8.a.o X X X X X X ",
"1 f S m s K , T { O.-.H x x Z / ` ] ^ Z v ;.j.k.W X X X X X X X ",
"9 f Z ^ x s s s s x b A / ` ` ] ^ n B :.j.k.k.p.X X X X X X X X ",
"2 f f D ` ( ) ( ] ] ` ] ` ^ N x H 8.j.k.j.0.2.& X X X X X X X X ",
"$ P f f x n A A S Z b b x H :.d.k.k.g.r.X.=.& + X X X X X X X X ",
"X o , 4 p p g a L 4 7 w p.k.k.k.d.>.` @.r X X X X X X X X X X X ",
"X X X X X X X o X X X X X - ~ *.&.%.E X X X X X X X X X X X X X ",
"X X X X X X X X X X X X X X X X X X X X X X X X X X X X X X X X ",
"X X X X X X X X X X X X X X X X X X X X X X X X X X X X X X X X ",
"X X X X X X X X X X X X X X X X X X X X X X X X X X X X X X X X ",
"X X X X X X X X X X X X X X X X X X X X X X X X X X X X X X X X ",
"X X X X X X X X X X X X X X X X X X X X X X X X X X X X X X X X ",
"X X X X X X X X X X X X X X X X X X X X X X X X X X X X X X X X "
};
