/* XPM */
static char *rabbit[] = {
/* columns rows colors chars-per-pixel */
"32 32 115 2 ",
"   c #280D47",
".  c #2A1148",
"X  c #2C1749",
"o  c #2B1D4B",
"O  c #32204F",
"+  c #30254D",
"@  c #352B52",
"#  c #362D51",
"$  c #382F54",
"%  c #3A3153",
"&  c #3B3256",
"*  c #3A3555",
"=  c #3E3758",
"-  c #3E3959",
";  c #3F3C5B",
":  c #403555",
">  c #403D5B",
",  c #424A50",
"<  c #434B50",
"1  c #45425E",
"2  c #494662",
"3  c #484863",
"4  c #4A4A63",
"5  c #4F4F68",
"6  c #51546A",
"7  c #53566C",
"8  c #54546D",
"9  c #55586F",
"0  c #595E73",
"q  c #5A5F74",
"w  c #5C6175",
"e  c #5F6679",
"r  c #616679",
"t  c #62697C",
"y  c #666C7E",
"u  c #696F82",
"i  c #6B7284",
"p  c #6D7687",
"a  c #6F7687",
"s  c #6F7787",
"d  c #6F7987",
"f  c #6E7788",
"g  c #757585",
"h  c #707989",
"j  c #70798B",
"k  c #737C8C",
"l  c #757D8D",
"z  c #797E90",
"x  c #79878F",
"c  c #788291",
"v  c #7F8291",
"b  c #7A8694",
"n  c #7B8695",
"m  c #7D8A96",
"M  c #7E8B98",
"N  c #858796",
"B  c #828E9B",
"V  c #8A8898",
"C  c #8B8D9B",
"Z  c #8A929F",
"A  c #94919F",
"S  c #8493A1",
"D  c #8794A0",
"F  c #8A96A3",
"G  c #8B99A6",
"H  c #8C9BA7",
"J  c #8E9EAA",
"K  c #8F9EAA",
"L  c #9E97A3",
"P  c #909FAB",
"I  c #959CA9",
"U  c #9B9CA9",
"Y  c #A19CA9",
"T  c #91A0AC",
"R  c #92A2AE",
"E  c #93A3AF",
"W  c #94A5B0",
"Q  c #97A8B3",
"!  c #99AAB5",
"~  c #9DAAB5",
"^  c #9EAEB9",
"/  c #9FAFBA",
"(  c #A1A5B1",
")  c #A3AAB5",
"_  c #A0AAB6",
"`  c #A3AEB8",
"'  c #B7A6B2",
"]  c #B1A8B3",
"[  c #B3AAB7",
"{  c #B4AAB6",
"}  c #C7A8B5",
"|  c #C7A9B6",
" . c #CBAAB6",
".. c #CDABB7",
"X. c #D2AAB8",
"o. c #D6AAB8",
"O. c #D7AAB8",
"+. c #D7ABB8",
"@. c #D9ABB9",
"#. c #DCAAB8",
"$. c #DCABB9",
"%. c #DFABB9",
"&. c #E8ABB9",
"*. c #EBABBA",
"=. c #EEABBA",
"-. c #EFABBA",
";. c #F0ABB9",
":. c #F2ABBA",
">. c #F3ABBA",
",. c #F4ABBA",
"<. c #B0B8C1",
"1. c #BCC5CD",
"2. c #C1CAD1",
"3. c #C5D0D8",
"4. c #CCD6DD",
/* pixels */
"            ; J q                                               ",
"+ 3         % ! Q i                                             ",
"2 ! J t       ( [ ! 0                                           ",
"  G ~ ! B O   Y ,.[ J O                                         ",
"  y @.+._ S X C >.=.~ t                                         ",
"  O ' >.&._ a h >.>. .B                                         ",
"    z =.,.#.W e &.,.#.G                                         ",
"    =  .,.,.{ d #.>.>.R                                         ",
"      A >.>.O.b X.,.,.F                                         ",
"      w #.>.>.m ..>.=.b                                         ",
"      o } >.,.Z } >.#.t                                         ",
"        V &.O.I ] @.} %                                         ",
"      3 H ! ! ! ! ! ! c 2 w f l l l f t 2                       ",
"    r W ! ! ! ! ! ! ! ! ! ! ! ! ! ! ! ! ! W b 5                 ",
"  q ! ! ! ! ! ! ! ! ! ! ! ! ! ! ! ! ! ! ! ! ! ! m ;             ",
"# R ! ! x , R ! ! ! ! ! ! ! ! ! ! ! ! ! ! ! ! ! ! W 9           ",
"h ! ! ! b < W ! ! ! ! ! ! ! ! ! ! ! ! ! ! ! ! ! ! ! W 7         ",
"U _ ! ! ! ! ! ! ! ! ! ! ! ! ! ! ! ! ! ! ! ! ! ! ! ! ! J @       ",
",.#.! ! ! ! ! ! ! ! ! ! ! ! ! ! ! ! ! ! ! ! ! ! ! ! ! ! j       ",
"&.X.! ! ! ! ! ! ! ! ! ! ! ! ! ! ! ! ! ! ! ! ! ! ! ! ! ! R X     ",
"L _ ! ! ! ! ! ! ! ! ! ! ! ! ! ! ! ! ! ! ! ! ! ! ! ! ! ! ! 1     ",
"2 R ! ! ! ! ! ! ! ! ! ! ! ! ! ! ! ! ! ! ! ! ! ! ! ! ! ! ! 9     ",
"  * k H W ! ! ! ! ! ! ! ! ! ! ! ! ! ! ! ! ! ! ! ! ! ! ! ^ _ g   ",
"          o & S ! ! ! ! ! ! ! ! ! ! ! ! ! ! ! ! ! ! ! ! ! 1.4.N ",
"              8 ! ! ! ! ! ! ! ! ! ! ! ! ! ! ! ! ! ! ! ! ! 3.4.1.",
"                J ! ! ! ! ! ! ! ! ! ! ! ! ! ! ! ! ! ! ! ^ 4.4.3.",
"                b ! ! ! ! ! ! ! ! ! ! ! ! ! ! ! ! ! ! ! <.4.4.<.",
"                f ! ! ! ! ! ! ! ! ! ! ! ! ! ! ! ! ! ! ^ 4.4.2.0 ",
"                e ! ! m M Q ! ! ! ! ! ! ! ! ! ! ! ! ! N N z =   ",
"                6 ! ! i   - Z ! ! ! ! ! ! ! ! ! ! ! ! H         ",
"                - ! ! 6   d ! ! ! ! ! ! ! ! ! ! ! ! ! u         ",
"                . J M     7 F R ! ! ! ! W E P G m a 1           "
};
