/* XPM */
static char *ufo[] = {
/* columns rows colors chars-per-pixel */
"32 32 179 2 ",
"   c #280D47",
".  c #2C1649",
"X  c #2C1749",
"o  c #281D4F",
"O  c #311F4B",
"+  c #311F4F",
"@  c #33284F",
"#  c #3E2A4A",
"$  c #3C3355",
"%  c #4B374C",
"&  c #324470",
"*  c #43405D",
"=  c #605253",
"-  c #675450",
";  c #756054",
":  c #7D695A",
">  c #51576A",
",  c #56576E",
"<  c #585E6B",
"1  c #5B6074",
"2  c #7B766E",
"3  c #606376",
"4  c #67757F",
"5  c #68767F",
"6  c #8B745B",
"7  c #91785C",
"8  c #7F8078",
"9  c #A48862",
"0  c #A78C63",
"q  c #A48F6A",
"w  c #B19566",
"e  c #BD9F6A",
"r  c #B3A37B",
"t  c #C5A66D",
"y  c #C6A870",
"u  c #CAAB70",
"i  c #CEAE71",
"p  c #D2B272",
"a  c #D9B874",
"s  c #E0BE78",
"d  c #E6C379",
"f  c #E7C479",
"g  c #ECC87B",
"h  c #F1CD7F",
"j  c #3A5A89",
"k  c #45618B",
"l  c #496F9A",
"z  c #687681",
"x  c #6E7585",
"c  c #6A7883",
"v  c #6C7984",
"b  c #6F7E87",
"n  c #6F7E88",
"m  c #737C80",
"M  c #727C89",
"N  c #737C8B",
"B  c #7D8481",
"V  c #71808A",
"C  c #74828D",
"Z  c #76858F",
"A  c #778293",
"S  c #7B8794",
"D  c #7B8993",
"F  c #7C8A94",
"G  c #7F8B97",
"H  c #74879D",
"J  c #5183B1",
"K  c #5A88B6",
"L  c #7C9AB3",
"P  c #659BC8",
"I  c #659CCC",
"U  c #5DADEC",
"Y  c #5EAEEC",
"T  c #6EAFE1",
"R  c #62AFEA",
"E  c #60AEEC",
"W  c #62B0ED",
"Q  c #68B1EB",
"!  c #6BB3EC",
"~  c #75B0E1",
"^  c #70B5EC",
"/  c #78B9EB",
"(  c #6EB7F0",
")  c #77BDF3",
"_  c #7BBFF3",
"`  c #7EC2F3",
"'  c #828680",
"]  c #848880",
"[  c #8F8F80",
"{  c #9A9780",
"}  c #838E9B",
"|  c #83929D",
" . c #83919E",
".. c #A9A181",
"X. c #B4A881",
"o. c #8895A1",
"O. c #8998A2",
"+. c #8999A3",
"@. c #90A0AB",
"#. c #92A1AC",
"$. c #93A3AD",
"%. c #90A2AE",
"&. c #9AA5AF",
"*. c #96A6B0",
"=. c #9AAAB4",
"-. c #9BACB5",
";. c #9FADB7",
":. c #9AACB8",
">. c #99ADBA",
",. c #98AEBB",
"<. c #9FAFB9",
"1. c #98AFBE",
"2. c #A3B1BA",
"3. c #A4B3BC",
"4. c #A6B4BE",
"5. c #CBB682",
"6. c #D2BB81",
"7. c #D9C082",
"8. c #E1C582",
"9. c #E4C882",
"0. c #EBCC82",
"q. c #F1D082",
"w. c #F7D280",
"e. c #F9D481",
"r. c #FAD582",
"t. c #FED882",
"y. c #FFD983",
"u. c #98AFC0",
"i. c #97B0C0",
"p. c #96B3C7",
"a. c #95B5CD",
"s. c #93B9D3",
"d. c #94B8D0",
"f. c #93BAD7",
"g. c #92BCD8",
"h. c #A7B8C2",
"j. c #ACBAC2",
"k. c #AEBBC4",
"l. c #A4BAC9",
"z. c #A9BECD",
"x. c #B1BDC5",
"c. c #84BEEB",
"v. c #91BEE0",
"b. c #B4C1CA",
"n. c #B7C4CA",
"m. c #B7C3CC",
"M. c #BAC6CE",
"N. c #BCC8D0",
"B. c #BFCAD3",
"V. c #8FC2E6",
"C. c #8EC3E9",
"Z. c #8FC4EB",
"A. c #95C3E5",
"S. c #9CC3E1",
"D. c #9CC4E4",
"F. c #81C3F4",
"G. c #84C6F5",
"H. c #8DC7F1",
"J. c #8BC9F7",
"K. c #8CCAF7",
"L. c #A8CCE6",
"P. c #B3CFE4",
"I. c #B7D0E3",
"U. c #BAD1E3",
"Y. c #BBD1E3",
"T. c #BFD3E1",
"R. c #C0CCD3",
"E. c #C1CBD4",
"W. c #C3CED6",
"Q. c #C3CFD6",
"!. c #C5D0D8",
"~. c #C7D1D8",
"^. c #C7D2D9",
"/. c #C3D5DF",
"(. c #C6D4DF",
"). c #C8D2DA",
"_. c #CAD4DD",
"`. c #CBD6DD",
"'. c #CCD6DD",
/* pixels */
"                                                                ",
"                                                                ",
"                                                                ",
"                      o j J I P K k                             ",
"        * x &.x.E.W.S.R U G.K.K.K.K.G.~ l                       ",
"    , o.j.^.'.'._.A.Y Y U R _ H.K.K.J.J.J.T &                   ",
"  H C.l.'.'.'.'._.R U U U U U E ( _ ` F.` ( E L +               ",
"1 =.=.M.'.'.'.'._./ U U U U U U U U U U U U U Q E.| O           ",
"G =.=.b.'.'.'.'.'.(.c.Y E U U U U U U U U U U U D.'.n.3         ",
"} =.>.;.^.'.'.'.'.'.`.I.F.U U U U U U U U U U U C.'.'.Q.} .     ",
"M i.K.a.3.).'.'.'.'.`.`.`./.L.C.! U U U U U U ^ Y.'.'.'.B.} .   ",
"> %.s.>.=.<.R.`.'.'.`.`._._.`.'._._.Y.P.P.P.T._.'.'.'.'.`.h.A   ",
"@ n *.=.=.=.=.h.^.'.'.'.'.'.'.'.'.'.'.'.'.'.'.'.'.'.'.'.`.z.C.> ",
"  8 M %.=.=.=.:.,.j.E.'.'.'.'.'.'.'.'.'.'.'.'.'.'.'.'.'.).<.>.S ",
"  = B v O.=.=.A.H.=.=.2.x.E.'.'.'._.'.'.'.'.'._.'.'.'.W.2.=.=.| ",
"    q ] 4 Z #.1.p.=.=.=.=.=.=.4.k.m.N.Q.!.!.).E.N.x.2.=.g.,.=.N ",
"    . y q z z H @.,.%.,.=.=.V.g.-.=.=.=.=.,.1.=.=.=.=.>.K.d.#.$ ",
"      o X.5.q c z C H %.=.=.g.s.=.=.=.=.=.C.C.-.=.=.=.;.=.O.>   ",
"        o y y.6.q z z z b D +.%.=.=.=.=.-.1.1.-.=.=.#.| V <     ",
"          a y.y.t.7...q z z z z 4 M Z A D G F Z V c 4 5 2       ",
"        ; y.y.y.t.y.y.y.q.5.r [ 5 5 5 4 4 4 4 4 C q r :         ",
"        u y.y.y.y.y.y.y.y.y.t.t.t.t.q.9.8.9.0.h i 6 X           ",
"      % r.y.y.y.y.y.y.y.y.y.y.y.y.y.y.y.t.y.a                   ",
"      w y.y.y.y.y.y.y.y.y.y.y.y.y.y.y.y.y.y.f                   ",
"      g y.y.y.y.y.y.y.y.y.y.y.y.y.y.y.y.t.t.h                   ",
"    7 t.y.y.y.y.y.y.y.y.y.y.y.y.y.y.y.y.t.t.t.=                 ",
"    a t.y.y.y.y.y.y.y.y.y.y.y.y.y.y.y.y.t.t.y.:                 ",
"  - t.t.y.y.y.y.y.y.y.y.y.y.y.y.y.y.y.y.y.t.y.9                 ",
". e y.y.y.y.y.y.y.y.y.y.y.y.y.y.y.y.y.y.y.y.y.e                 ",
"# w.y.y.y.y.y.y.y.y.y.y.y.y.y.y.y.y.y.y.y.y.y.p                 ",
"0 t.y.y.y.y.y.y.y.y.y.y.y.y.y.y.y.y.y.y.y.y.t.g                 ",
"d t.y.y.y.y.y.y.y.y.y.y.y.y.y.y.y.y.y.y.y.y.y.h                 "
};
