/* XPM */
static char *_[] = {
/* columns rows colors chars-per-pixel */
"64 64 97 2 ",
"   c #000000",
".  c #080601",
"X  c #0C0A02",
"o  c #0C0C0B",
"O  c #170000",
"+  c #100D02",
"@  c #141103",
"#  c #1A1605",
"$  c #1D1906",
"%  c #15130B",
"&  c #131313",
"*  c #1C1C1C",
"=  c #290100",
"-  c #241F08",
";  c #26210A",
":  c #2A240B",
">  c #2F290D",
",  c #322C0E",
"<  c #3B3412",
"1  c #3C3619",
"2  c #242424",
"3  c #2C2524",
"4  c #2B2B2B",
"5  c #333333",
"6  c #3B3934",
"7  c #3B3B3B",
"8  c #6A0300",
"9  c #780500",
"0  c #453D16",
"q  c #4C441A",
"w  c #50471B",
"e  c #564C1E",
"r  c #594F1F",
"t  c #5F5422",
"y  c #695D26",
"u  c #716429",
"i  c #7B6D2E",
"p  c #7D702F",
"a  c #796D39",
"s  c #444444",
"d  c #4B4B4B",
"f  c #54524A",
"g  c #535353",
"h  c #585751",
"j  c #5B5B5B",
"k  c #636363",
"l  c #6C6C6C",
"z  c #747474",
"x  c #7C7C7C",
"c  c #97110C",
"v  c #AA1F1A",
"b  c #E31000",
"n  c #837632",
"m  c #877933",
"M  c #8A7C34",
"N  c #EC6361",
"B  c #918237",
"V  c #9B8B3B",
"C  c #A3923F",
"Z  c #A69341",
"A  c #B5A247",
"S  c #BAA749",
"D  c #BEAB4B",
"F  c #C1AD4C",
"G  c #C7B24F",
"H  c #CBB651",
"J  c #CDB851",
"K  c #D1BC54",
"L  c #D9C257",
"P  c #DCC558",
"I  c #DFC859",
"U  c #E2CA5B",
"Y  c #EBD35E",
"T  c #EFD660",
"R  c #F3DA62",
"E  c #F8DF64",
"W  c #FFE567",
"Q  c #838383",
"!  c #8E8786",
"~  c #8D8D8D",
"^  c #949494",
"/  c #9B9B9B",
"(  c #A3A3A3",
")  c #ABABAB",
"_  c #B1B0AF",
"`  c #B3B3B3",
"'  c #B9B7B7",
"]  c #BBBBBB",
"[  c #CB9897",
"{  c #EFBDBC",
"}  c #C4C4C4",
"|  c #CBCBCB",
" . c #DBCACA",
".. c #D3D3D3",
"X. c #DBDBDB",
"o. c gray89",
"O. c gray91",
/* pixels */
"& ( X.z o                                                                                                                       ",
"  & z X./ 2                                                                                                                     ",
"      d } } d                                                                                                                   ",
"        2 / ..x &                                                                                                               ",
"          o z ..) 4                                                                                                             ",
"              7 ' | d                                                                                                           ",
"                * / X.z .                                                                                                       ",
"                  o Q O.z                                                                                                       ",
"*                 o ~ ) X.d                                                                                                     ",
"} l *             & g * ( ] *                                                                                                   ",
"x ..' s                 4 ..x                                                                                                   ",
"o / ` ..k                 x ..6                                                                                                 ",
"4 ] x Q ..z o             * ` ( o                                                                                               ",
"~ X.h o z ..^ 2             s X.l                                                                                               ",
") ' *     g } ] 7             Q ..7                                                                                             ",
"} 5         4 / ..l o         g ..] *                                                                                           ",
"4             o z ..~ &       h / | ^ o                                                                                         ",
"                  g | ( 2     l k d ..z                                                                                         ",
"                    7 ] ' 7   7 ^ 2 l X.s                                                                                       ",
"                      3 [  .x * j ~ 7 / ] *                                           & 4 7 *                                   ",
"                        c N { } l d k l X.k                                     . 4 x ` ....] 4                                 ",
"                        8 b v ! ....] ' X.j                                 * d ) | ] ~ s 5 ] ~                                 ",
"                        O 9 =   2 s Q ~ g .                             o g ] ../ 7 *       x ' &                               ",
"o                                                                     g ` ..^ 7 .           g | 2                               ",
"( 4                                                               2 ~ X.( 7 .               7 | 2                               ",
"` | j                                                         . j } ' k o                   k } *                               ",
"* ~ X.d                                                     o l X.^ 2                     o ( /                                 ",
"2 o / ] &                                 o 2 g z / / / ^ / ) X.~ 7 &                     * } j                                 ",
"~ ~ k ..4                             o h ) | | ] ` ( ) ( ( ^ ` ] | ] / j 2               s | 4                                 ",
"* 5 l ..4                           s ` ../ h a A K H S i #   . & 4 z / | | x 2           Q ] &                                 ",
"` ` ../ o                       o x ..( 6 n K W W W W W W A >         o 2 z | } k .       ( /                                   ",
"Q ~ k &                       o x ..k 1 A E W W W W W W W W Z .             2 Q ` 2 . o & ] x                                   ",
"                          o d ) ..l ; G W W W W W W W W W W L ;                 *   z ) g ..s                                   ",
"                        5 ( ../ d o M W W W W W W W W W W W U :                     7 ( X.} *                                   ",
"                  . 2 Q | ' s o   $ K W W W W W W W W W W W Z .                       * ` ` o                                   ",
"              * k ( | | l *       : U W W W W W W W W W W K 0                           s ..l                                   ",
"            o ) ..( k 2           @ F W W W W W W W W W H <                               x } 5                                 ",
"            d ..s                   y Y W W W W W W I C >                                 & } /                                 ",
"            ~ ' o                   . e A I U P D n , .                                     k X.j                               ",
"z z ! x x x | / &                       X : f z %                                           o ~ | 5                             ",
"} ' ] ' ] ] o.~ &                           k o.4                 @ < y t w > ; +             * ) ( *                           ",
"( ) ] ] ] } o.k                             & j &             ; n F Y E W W Y L D B >           4 | l                           ",
"( ~ Q x Q } ' d                                             < G W W W W W W W W W W J <           Q | h l x k s 2 &             ",
"        * } j                 g g 4 *                     q K W W W W W W W W W W W W J w         * ] X.| ` } | | ] ^ s 2       ",
"        7 | 4               & ^ | | ] j                 @ F W W W W W W W W W W W W W W S @         j | 5 o & 2 d x ] ..| ^ 4 . ",
"        ~ _ o                 o 2 5 ( (                 q T W W W W W W W W W W W W W W R 0         o k *           o 4 k ] | z ",
"      o ` Q                         Q _ .               m W W W W W W W W W W W W W W W W p         4 ] 2                 * x X.",
"      2 | d                         z `                 V W W W W W W W W W W W W W W W W n         2 | d                     g ",
"      7 ..4                         s Q o               M W W W W W W W W W W W W W W W W i         2 | j                       ",
"      j | *                           .                 < I W W W W W W W W W W W W W W E r         2 | d                     j ",
"      ! _ o                                             . n R W W W W W W W W W W W W W K -         4 ..d                   o ' ",
"      z ' o                                               X B Y W W W W W W W W W W W U y           5 | 5                   5 ..",
"      j } *                                                 . y H R W W W W W W W W G e             l | 2                   x } ",
"      5 ..5                                                     # e V S K P L D V u $             o ) ( .                 2 } x ",
"      * } k                                                           . $ ; - X                   2 ..k                 o ~ ' * ",
"        / (                                                                                       l ..2               . z ..s   ",
"        k | 5                                                                                   o _ ( o               k | j     ",
"        * ] ' 7                                                                                 l ..s               j ..Q .     ",
"          4 ' ..5                                                                             5 | Q .             j | ^ &       ",
"          . 4 } ^ .                                                                           ^ ` &             k | Q &         ",
"              z X.2                                                                         o Q s             z X.x o           ",
"              5 ..7                                                 6 h o .                                 k ..Q o             ",
"              & ` x                                                 z ] Q x                             o l ..z                 ",
"                x } *                                               s | ( )                           o Q ..l .                 "
};
