/* XPM */
static char *_[] = {
/* columns rows colors chars-per-pixel */
"64 64 99 2 ",
"   c #000000",
".  c #080601",
"X  c #0C0A02",
"o  c #0B0B0B",
"O  c #170000",
"+  c #100D02",
"@  c #141103",
"#  c #1A1605",
"$  c #1D1906",
"%  c #15130B",
"&  c #131313",
"*  c #1C1C1C",
"=  c #290100",
"-  c #241F08",
";  c #26210A",
":  c #2A240B",
">  c #2F290D",
",  c #322C0E",
"<  c #3B3412",
"1  c #3C3619",
"2  c #242424",
"3  c #2C2524",
"4  c #2B2B2B",
"5  c #333333",
"6  c #3B3934",
"7  c #3B3B3B",
"8  c #6A0300",
"9  c #780500",
"0  c #453D16",
"q  c #4C441A",
"w  c #50471B",
"e  c #564C1E",
"r  c #594F1F",
"t  c #5F5422",
"y  c #695D26",
"u  c #716429",
"i  c #7B6D2E",
"p  c #7D702F",
"a  c #796D39",
"s  c #434343",
"d  c #4B4B4B",
"f  c #54524A",
"g  c #535353",
"h  c #585751",
"j  c #5C5C5C",
"k  c #636363",
"l  c #6B6B6B",
"z  c #747474",
"x  c #7C7C7C",
"c  c #97110C",
"v  c #AA1F1A",
"b  c #E31000",
"n  c #837632",
"m  c #877933",
"M  c #8A7C34",
"N  c #EC6361",
"B  c #918237",
"V  c #9B8B3B",
"C  c #A3923F",
"Z  c #A69341",
"A  c #B5A247",
"S  c #BAA749",
"D  c #BEAB4B",
"F  c #C1AD4C",
"G  c #C7B24F",
"H  c #CBB651",
"J  c #CDB851",
"K  c #D1BC54",
"L  c #D9C257",
"P  c #DCC558",
"I  c #DFC859",
"U  c #E2CA5B",
"Y  c #EBD35E",
"T  c #EFD660",
"R  c #F3DA62",
"E  c #F8DF64",
"W  c #FFE567",
"Q  c #838383",
"!  c #8E8786",
"~  c #8C8C8C",
"^  c #949494",
"/  c #9B9B9B",
"(  c #A3A3A3",
")  c #ABABAB",
"_  c #B1B0AF",
"`  c #B4B4B4",
"'  c #B9B7B7",
"]  c #BBBBBB",
"[  c #CB9897",
"{  c #EFBDBC",
"}  c #C4C4C4",
"|  c #CBCBCB",
" . c #DBCACA",
".. c #D3D3D3",
"X. c #DBDBDB",
"o. c gray89",
"O. c gray91",
"+. c #F4F4F4",
"@. c #F8F8F8",
/* pixels */
"& ( X.z o                                                                                                                       ",
"  & z X./ 2                                                                                                                     ",
"      d } } d                                                                                                                   ",
"        2 / ..x &                                                                                                               ",
"          o z ..) 4                                                                                                             ",
"              7 ' | d                                                                                                           ",
"                * / X.z .                                                                                                       ",
"                  o Q O.z                                                                                                       ",
"*                 o ~ ) X.d                                                                                                     ",
"} z *             & g * ( ] *                                                                                                   ",
"x ..` s                 4 ..x                                                                                                   ",
"o / ` ..k                 x ..6                                                                                                 ",
"4 ] x Q ..z o             & ' ) o                                                                                               ",
"~ X.g o z ..^ 2             s X.l                                                                                               ",
") ] *     g } ] 7             Q ..7                                                                                             ",
"] 5         4 / ..l o         g ..] *                                                                                           ",
"4             o z ..~ &       g / | ^ o                                                                                         ",
"                  g | ( 2     l k d ..z                                                                                         ",
"                    7 ] ] 6   7 ^ 2 l ..s                                                                                       ",
"                      3 [  .x * j ~ 7 ( ] *                                           & 4 7 *                                   ",
"                        c N { } l d k l X.k                                     . 4 x ` ....] 4                                 ",
"                        8 b v ! ....] ' X.j                                 & d ) | ] ~ s 5 ] ~                                 ",
"                        O 9 =   2 s Q ~ g .                             & g ' ../ 7 &       x ' &                               ",
"o                                                                     g ` ..^ 7 o           g | 2                               ",
"( 4                                                               2 ~ X.( 7 .               7 | 2                               ",
"` | j                                                         . j } ] k o                   k } *                               ",
"* ~ ..g                                                     o l X./ 2                     . ) /                                 ",
"2 o / ] &                                 . 2 g z / / / ^ / ) X.~ 5 &                     * } j                                 ",
"~ ~ k ..4                             & g ) | | ] ` ( ) ( ( ^ ` } | ] / j 2               s | 4                                 ",
"* 5 k ..4                           7 ` ../ h a A K H S i #   . & 4 l ( | | x 2           Q ] &                                 ",
"` ` ..( o                       o x ..( 6 n K W W W W W W A >         . 4 z } } k .       ( /                                   ",
"Q ~ k &                       o x ..k 1 A E W W W W W W W W Z .             2 Q ` 2 . o & ] x                                   ",
"                          o d ) X.k ; G W W W W W W W W W W L ;                 *   z ) d ..s                                   ",
"                        5 ( ../ d o B W W W W W W W W W W W U :                     7 ( X.| *                                   ",
"                  . 2 Q | ] s o   # K W W W W W W W W W W W Z .                       * ` ` &                                   ",
"              & k ( | | l *       : U W W W W W W W W W W K 0                           7 ..l                                   ",
"            & ( | ( k 2           @ F W W W W W W W W W H <                               x } 5                                 ",
"            d ..s                   y Y W W W W W W I C >                                 & } /                                 ",
"            ~ ` &                   . e A P U P D n , .                                     k X.j                               ",
"z z ! x x x | / &               5 4 .   X : f z %                                           o ~ | 5                             ",
"| ` ] ` ] ] o.~ &             s | X.Q 4     k o.4                 @ < y t w > ; +             * ) ) &                           ",
"( ) ] ] ] } o.k             4 } | +.o...x & & k &             ; n F Y E W W Y L D B >           4 | l .                         ",
"/ ^ Q x Q } ' d           2 ) } } ^ ^ Q ) ^ &               < G W W W W W W W W W W J <           Q | g l x k s 2 &             ",
"        * } j           s ] } 7 *   .   s ..4             q K W W W W W W W W W W W W J w         * ] X.| ` } | | ] ^ s 2       ",
"        7 | 4       o k ..) 5           4 ..g           @ F W W W W W W W W W W W W W W S @         k | 5 o & 2 d x ] ..| ^ 4 . ",
"        ~ ` o     2 / ..Q &             & ` ^           q T W W W W W W W W W W W W W W R 0         o k *           & 4 k ] | z ",
"      o ` Q   . k | } g                 j o.(           m W W W W W W W W W W W W W W W W p         4 ` 2                 * x X.",
"      2 | d   z ..^ 2                   5 } } &         V W W W W W W W W W W W W W W W W n         2 | s                     g ",
"      7 ..5 7 o.^ &                   o / @.| *         M W W W W W W W W W W W W W W W W i         2 | j                       ",
"      k | * ~ o.| s                     l _ ] &         < I W W W W W W W W W W W W W W E r         2 | d                     j ",
"      Q ) o ) o.l .                     4 X./           . n R W W W W W W W W W W W W W K -         4 ..d                   o ` ",
"      z ] o z X.Q                       4 ..k             X B Y W W W W W W W W W W W U y           5 | 5                   5 ..",
"      j } * 5 X.Q                     . ~ ] *               . y H R W W W W W W W W G e             l | 2                   x } ",
"      5 ..5   x ..g * . & o           l | k                     # e V S K P L D V u $             o ) ( .                 2 } x ",
"      * } k   o ~ X.} g ` g       o k ..z .                           . $ ; - X                   2 ..k                 o ~ ] * ",
"        / (     o x X...] s 2 5 j ) X.x o                                                         l ..2                 z ..s   ",
"        k | 4       j } X.o...X.| ( d .                                                         o _ ( .               k | k     ",
"        2 ] ] 7       * 5 j g 5 2 .                                                             k X.s               j ..Q .     ",
"          4 ] ..6                                                                             5 | Q .             j } ^ &       ",
"            4 } ^                                                                             ^ ` &             k ..Q &         ",
"              z X.2                                                                         o Q s             z X.x o           ",
"              5 ..7                                                 7 g o .                                 k ..Q o             ",
"              & ` x                                                 z ] x x                             o l ..z                 ",
"                x } *                                               d | ( )                           & Q ..l .                 "
};
