/* XPM */
static char *_[] = {
/* columns rows colors chars-per-pixel */
"64 64 104 2 ",
"   c #000000",
".  c #090401",
"X  c #0C0A02",
"o  c #0B0B0B",
"O  c #1D0000",
"+  c #141103",
"@  c #1A1605",
"#  c #1D1906",
"$  c #15130B",
"%  c #131313",
"&  c #1C1C1C",
"*  c #220000",
"=  c #300100",
"-  c #241F08",
";  c #26210A",
":  c #2A240B",
">  c #2F290D",
",  c #322C0E",
"<  c #3B3412",
"1  c #3C3619",
"2  c #242424",
"3  c #2C2524",
"4  c #2B2B2B",
"5  c #333333",
"6  c #3B3934",
"7  c #3B3B3B",
"8  c #440100",
"9  c #6B0300",
"0  c #453D16",
"q  c #4C441A",
"w  c #50471B",
"e  c #564C1E",
"r  c #594F1F",
"t  c #5F5422",
"y  c #695D26",
"u  c #716429",
"i  c #7B6D2E",
"p  c #7D702F",
"a  c #796D39",
"s  c #434343",
"d  c #4B4B4B",
"f  c #54524A",
"g  c #535353",
"h  c #585751",
"j  c #5C5C5C",
"k  c #636363",
"l  c #6B6B6B",
"z  c #747474",
"x  c #7C7C7C",
"c  c #960700",
"v  c #97110B",
"b  c #AC1F1A",
"n  c #D20E00",
"m  c #E61000",
"M  c #837632",
"N  c #877933",
"B  c #8A7C34",
"V  c #EC5855",
"C  c #918237",
"Z  c #938338",
"A  c #9B8B3B",
"S  c #A3923F",
"D  c #A69341",
"F  c #B5A247",
"G  c #B6A349",
"H  c #BAA749",
"J  c #BEAB4B",
"K  c #C1AD4C",
"L  c #C7B24F",
"P  c #CBB651",
"I  c #CDB851",
"U  c #D1BC54",
"Y  c #D6C055",
"T  c #D9C257",
"R  c #DCC558",
"E  c #DFC859",
"W  c #E2CA5B",
"Q  c #EBD35E",
"!  c #EFD660",
"~  c #F3DA62",
"^  c #F8DF64",
"/  c #FFE567",
"(  c #838383",
")  c #8E8786",
"_  c #8C8C8C",
"`  c #949494",
"'  c #9B9B9B",
"]  c #A3A3A3",
"[  c #ABABAB",
"{  c #B1B0AF",
"}  c #B4B4B4",
"|  c #B9B7B7",
" . c #BBBBBB",
".. c #CA9897",
"X. c #EFBCBB",
"o. c #C4C4C4",
"O. c #CBCBCB",
"+. c #DAC9C8",
"@. c #D3D3D3",
"#. c #DBDBDB",
"$. c gray89",
"%. c gray91",
"&. c #F4F4F4",
"*. c #F8F8F8",
/* pixels */
"% ] #.z o                                                                                                                       ",
"  % z #.' 2                                                                                                                     ",
"      d o.o.d                                                                                                                   ",
"        2 ' @.x %                                                                                                               ",
"          o z @.[ 4                                                                                                             ",
"              7 | O.d                                                                                                           ",
"                & ' #.z .                                                                                                       ",
"                  o ( %.z                                                                                                       ",
"&                 o _ [ #.d                                                                                                     ",
"o.z &             % g & ]  .&                                                                                                   ",
"x @.} s                 4 @.x                                                                                                   ",
"o ' } @.k                 x @.6                                                                                                 ",
"4  .x ( @.z o             % | [ o                                                                                               ",
"_ #.g o z @.` 2             s #.l                                                                                               ",
"[  .&     g o. .7             ( @.7                                                                                             ",
" .5         4 ' @.l o         g @. .&                                                                                           ",
"4             o z @._ %       g ' O.` o                                                                                         ",
"                  g O.] 2     l k d @.z                                                                                         ",
"                    7  . .6   7 ` 2 l @.s                                                                                       ",
"                      3 ..+.x & j _ 7 ]  .&                                           % 4 7 &                                   ",
"                        v V X.o.l d k l #.k                                     . 5 z } O.@. .4                                 ",
"                        9 m b ) @.@. .| #.j                                 % d [ O. ._ d 5  ._                                 ",
"                        = n 8   2 d ( _ g .                             % g | @.' 7 %       x  .%                               ",
"o                       * c O                                         g } @.` 7 o           g O.2                               ",
"] 4                       .                                       2 _ #.[ 7 .               6 o.2                               ",
"} O.j                                                           j o. .k .                   l o.&                               ",
"& _ @.g                                                     o l #.' 2                     o [ '                                 ",
"2 o '  .%                                 . 2 g z ' ' ' ` ] [ #._ 5 %                     & o.g                                 ",
"_ _ k @.4                             % g [ O.O. .} [ [ ' ] ` }  .O. .' j 2               s O.4                                 ",
"& 5 k @.4                           7 } @.' f a G U P H i @   . % 5 l ] O.O.( 2           (  .%                                 ",
"} } @.] o                       o x @.] 6 M U / / / / / ^ G >         . 2 z o.o.k         [ '                                   ",
"( _ k %                       o x @.k 1 F ^ / / / / / / / / D .             2 ( } 2 . o o  .x                                   ",
"                          o d [ #.l ; L / / / / / / / / / / T ;                 &   z [ d @.s                                   ",
"                        5 ] @.' s o B / / / / / / / / / / / W :                     7 ] #.O.&                                   ",
"                  . 2 ( O. .s o   # U / / / / / / / / / / / D .                       & } } %                                   ",
"              % j ] O.O.l &       : W / / / / / / / / / / U 0                           7 @.l                                   ",
"            o [ @.] l 2           + K / / / / / / / / / P <                               x o.5                                 ",
"            d @.s                   y Q / / / / / / E S >                                 % o.'                                 ",
"            ` } o                   . r F E W R J M , X                                     k #.j                               ",
"z z _ x x x O.' %               5 4 .   X ; f z $                                           o _ O.5                             ",
"o.}  .}  . .#.` %             s O.#._ 4     k $.4                 + < y t w , ; X             & [ [ %                           ",
"[ [  . . .o.$.k             4 o.O.&.$.@.x % % j %             ; M K Q ^ / / Q T J C >           4 O.z                           ",
"' _ ( ( x o.} d           2 { o.o.` ` ( [ ` %               < L / / / / / / / / / / I <           ( O.g l x j d 2 %             ",
"        & o.k           s  .o.5 &       s @.4             q U / / / / / / / / / / / / I w         %  .$.o.} o.O.O. .` s 2       ",
"        7 O.4       o k @.{ 5           4 @.h           + J / / / / / / / / / / / / / / H +         k O.5 . % 4 d x  .@.O.` 4 . ",
"        _ } o     2 ' @.( %             o } `           q ! / / / / / / / / / / / / / / ~ 0         o j &           o 4 k  .O.z ",
"      o } (   . j o.o.g                 k #.[           B / / / / / / / / / / / / / / / / p         4  .2                 & ( #.",
"      2 O.d   z #.` 2                   4 o.o.%         A / / / / / / / / / / / / / / / / N         2 O.d                     g ",
"      7 @.5 7 $.` %                   o ' *.O.&         B / / / / / / / / / / / / / / / / i         2 O.j                       ",
"      j O.& _ %.O.s                     l {  .%         < E / / / / / / / / / / / / / / ~ r         2 O.d                     j ",
"      _ [ o [ %.k .                     4 #.'           . M ~ / / / / / / / / / / / / / Y -         4 @.d                   o } ",
"      z } o z #.( .                     4 @.j             X Z ! / / / / / / / / / / / W y           5 O.5                   5 @.",
"      j o.& 5 #.(                     . _  .&               X t P ~ / / / / / / / / L e             l O.2                   x o.",
"      5 @.5   x @.g & o % o           l O.k                     @ e A H U R T J A u #             . [ ] .                 2 o.x ",
"      & o.k   o _ @. .g } d       o k O.z .                           X # ; - X                   2 @.k                 o _  .& ",
"        ' ]     o ( #.#. .d 2 5 j [ #.( o                                                         l @.4                 z @.s   ",
"        k O.4       j o.#.%.O.#.@.] d                                                           o { ] o               k O.j     ",
"        2  . .7       % 5 j g 5 2 .                                                             k @.s               j @.( .     ",
"          4  .@.5                                                                             5 O.( .             j o.` %       ",
"            4 o.` o                                                                           ` } &             k @.( %         ",
"              z #.2                                                                         o ( s             z #.x o           ",
"              5 @.7                                                 7 g o .                                 k @.( o             ",
"              % } x                                                 z  .( x                             o l @.z                 ",
"                x o.&                                               s O.] [                           o ( @.l .                 "
};
