/* XPM */
static char *_[] = {
/* columns rows colors chars-per-pixel */
"64 64 104 2 ",
"   c #000000",
".  c #080601",
"X  c #0C0A02",
"o  c #0B0B0B",
"O  c #150000",
"+  c #100D02",
"@  c #141103",
"#  c #1A1605",
"$  c #1D1906",
"%  c #15130B",
"&  c #131313",
"*  c #1C1C1C",
"=  c #300100",
"-  c #241F08",
";  c #26210A",
":  c #2A240B",
">  c #2F290D",
",  c #322C0E",
"<  c #3B3412",
"1  c #3C3619",
"2  c #242424",
"3  c #2C2524",
"4  c #2B2B2B",
"5  c #333333",
"6  c #3B3934",
"7  c #3B3B3B",
"8  c #430100",
"9  c #5B0300",
"0  c #610300",
"q  c #6B0300",
"w  c #453D16",
"e  c #4C441A",
"r  c #50471B",
"t  c #564C1E",
"y  c #594F1F",
"u  c #5F5422",
"i  c #695D26",
"p  c #716429",
"a  c #7B6D2E",
"s  c #7D702F",
"d  c #796D39",
"f  c #434343",
"g  c #4B4B4B",
"h  c #54524A",
"j  c #535353",
"k  c #585751",
"l  c #5C5C5C",
"z  c #636363",
"x  c #6B6B6B",
"c  c #747474",
"v  c #7C7C7C",
"b  c #97110B",
"n  c #B70B00",
"m  c #AC1F1A",
"M  c #D20E00",
"N  c #D80F00",
"B  c #E61000",
"V  c #837632",
"C  c #877933",
"Z  c #8A7C34",
"A  c #EC5855",
"S  c #918237",
"D  c #9B8B3B",
"F  c #A3923F",
"G  c #A69341",
"H  c #B5A247",
"J  c #BAA749",
"K  c #BEAB4B",
"L  c #C1AD4C",
"P  c #C7B24F",
"I  c #CBB651",
"U  c #CDB851",
"Y  c #D1BC54",
"T  c #D9C257",
"R  c #DCC558",
"E  c #DFC859",
"W  c #E2CA5B",
"Q  c #EBD35E",
"!  c #EFD660",
"~  c #F3DA62",
"^  c #F8DF64",
"/  c #FFE567",
"(  c #838383",
")  c #8E8786",
"_  c #8C8C8C",
"`  c #949494",
"'  c #9B9B9B",
"]  c #A3A3A3",
"[  c #ABABAB",
"{  c #B1B0AF",
"}  c #B4B4B4",
"|  c #B9B7B7",
" . c #BBBBBB",
".. c #CA9897",
"X. c #EFBCBB",
"o. c #C4C4C4",
"O. c #CBCBCB",
"+. c #DAC9C8",
"@. c #D3D3D3",
"#. c #DBDBDB",
"$. c gray89",
"%. c gray91",
"&. c #F4F4F4",
"*. c #F8F8F8",
/* pixels */
"& ] #.c o                                                                                                                       ",
"  & c #.' 2                                                                                                                     ",
"      g o.o.g                                                                                                                   ",
"        2 ' @.v &                                                                                                               ",
"          o c @.[ 4                                                                                                             ",
"              7 | O.g                                                                                                           ",
"                * ' #.c .                                                                                                       ",
"                  o ( %.c                                                                                                       ",
"*                 o _ [ #.g                                                                                                     ",
"o.c *             & j * ]  .*                                                                                                   ",
"v @.} f                 4 @.v                                                                                                   ",
"o ' } @.z                 v @.6                                                                                                 ",
"4  .v ( @.c o             & | [ o                                                                                               ",
"_ #.j o c @.` 2             f #.x                                                                                               ",
"[  .*     j o. .7             ( @.7                                                                                             ",
" .5         4 ' @.x o         j @. .*                                                                                           ",
"4             o c @._ &       j ' O.` o                                                                                         ",
"                  j O.] 2     x z g @.c                                                                                         ",
"                    7  . .6   7 ` 2 x @.f                                                                                       ",
"                      3 ..+.v * l _ 7 ]  .*                                           & 4 7 *                                   ",
"                        b A X.o.x g z x #.z                                     . 4 v } @.@. .4                                 ",
"                        q B m ) @.@. .| #.l                                 & g [ O. ._ f 5  ._                                 ",
"                        = M 8   2 f ( _ j .                             & j | @.' 7 &       v | &                               ",
"o                       0 N 8                                         j } @.` 7 o           j O.2                               ",
"] 4                     9 n 8                                     2 _ #.] 7 .               7 O.2                               ",
"} O.l                     O                                   . l o. .z o                   z o.*                               ",
"* _ @.j                                                     o x #.' 2                     . [ '                                 ",
"2 o '  .&                                 . 2 j c ' ' ' ` ' [ #._ 5 &                     * o.l                                 ",
"_ _ z @.4                             & j [ O.O. .} ] [ ] ] ` } o.O. .' l 2               f O.4                                 ",
"* 5 z @.4                           7 } @.' k d H Y I J a #   . & 4 x ] O.O.v 2           (  .&                                 ",
"} } @.] o                       o v @.] 6 V Y / / / / / / H >         . 4 c o.o.z .       ] '                                   ",
"( _ z &                       o v @.z 1 H ^ / / / / / / / / G .             2 ( } 2 . o &  .v                                   ",
"                          o g [ #.x ; P / / / / / / / / / / T ;                 *   c [ g @.f                                   ",
"                        5 ] @.' f o Z / / / / / / / / / / / W :                     7 ] #.O.*                                   ",
"                  . 2 ( O. .f o   $ Y / / / / / / / / / / / G .                       * } } &                                   ",
"              & z ] O.O.x *       : W / / / / / / / / / / Y w                           7 @.x                                   ",
"            & ] O.] z 2           @ L / / / / / / / / / I <                               v o.5                                 ",
"            g @.f                   i Q / / / / / / E F >                                 & o.'                                 ",
"            _ } &                   . t H R W R K V , .                                     z #.l                               ",
"c c ) v v v O.' &               5 5 .   X : h c %                                           o _ O.5                             ",
"O.}  .}  . .$._ &             f o.#._ 2     z $.4                 @ < i u r > ; +             * [ [ &                           ",
"] [  . . .o.$.z             4 o.O.&.$.@.v & & z &             ; V L Q ^ / / Q T K S >           4 O.x .                         ",
"' ` ( v ( o.| g           2 [ o.o.` ` ( [ ` &               < P / / / / / / / / / / U <           ( O.j x v z f 2 &             ",
"        * o.l           f  .o.7 * .     f @.4             e Y / / / / / / / / / / / / U r         *  .#.O.} o.O.O. .` f 2       ",
"        7 O.4       o z @.[ 5           4 @.j           @ L / / / / / / / / / / / / / / J @         z O.5 o & 2 g v  .@.O.` 4 . ",
"        _ } o     2 ' @.( &             o } `           e ! / / / / / / / / / / / / / / ~ w         o z *           & 4 z  .O.c ",
"      o } (   . z O.o.j                 l $.[           C / / / / / / / / / / / / / / / / s         4 } 2                 * v #.",
"      2 O.g   c @.` 2                   5 o.o.&         D / / / / / / / / / / / / / / / / V         2 O.f                     j ",
"      7 @.5 7 $.` &                   o ' *.O.*         Z / / / / / / / / / / / / / / / / a         2 O.l                       ",
"      z O.* _ $.O.f                     x {  .&         < E / / / / / / / / / / / / / / ^ y         2 O.g                     l ",
"      ( [ o [ $.x .                     4 #.'           . V ~ / / / / / / / / / / / / / Y -         4 @.g                   o } ",
"      c  .o c #.(                       4 @.z             X S Q / / / / / / / / / / / W i           5 O.5                   5 @.",
"      l o.* 5 #.(                     . _  .*               . i I ~ / / / / / / / / P t             x O.2                   v o.",
"      5 @.5   v @.j * . & o           x O.z                     # t D J Y R T K D p $             o [ ] .                 2 o.v ",
"      * o.z   o _ #.o.j } j       o z @.c .                           . $ ; - X                   2 @.z                 o _  .* ",
"        ' ]     o v #.@. .f 2 5 l [ #.v o                                                         x @.2                 c @.f   ",
"        z O.4       l o.#.$.@.#.O.] g .                                                         o { ] .               z O.z     ",
"        2  . .7       * 5 l j 5 2 .                                                             z #.f               l @.( .     ",
"          4  .@.6                                                                             5 O.( .             l o.` &       ",
"            4 o.`                                                                             ` } &             z @.( &         ",
"              c #.2                                                                         o ( f             c #.v o           ",
"              5 @.7                                                 7 j o .                                 z @.( o             ",
"              & } v                                                 c  .v v                             o x @.c                 ",
"                v o.*                                               g O.] [                           & ( @.x .                 "
};
