/* XPM */
static char *_[] = {
/* columns rows colors chars-per-pixel */
"64 64 105 2 ",
"   c #000000",
".  c #080601",
"X  c #0C0A02",
"o  c #0B0B0B",
"O  c #170000",
"+  c #100D02",
"@  c #141103",
"#  c #1A1605",
"$  c #1D1906",
"%  c #15130B",
"&  c #131313",
"*  c #1C1C1C",
"=  c #230000",
"-  c #290100",
";  c #360100",
":  c #241F08",
">  c #26210A",
",  c #2A240B",
"<  c #2F290D",
"1  c #322C0E",
"2  c #3B3412",
"3  c #3C3619",
"4  c #242424",
"5  c #2C2524",
"6  c #2B2B2B",
"7  c #333333",
"8  c #3B3934",
"9  c #3B3B3B",
"0  c #4B0200",
"q  c #690300",
"w  c #780500",
"e  c #453D16",
"r  c #4C441A",
"t  c #50471B",
"y  c #564C1E",
"u  c #594F1F",
"i  c #5F5422",
"p  c #695D26",
"a  c #716429",
"s  c #7B6D2E",
"d  c #7D702F",
"f  c #796D39",
"g  c #434343",
"h  c #4B4B4B",
"j  c #54524A",
"k  c #535353",
"l  c #585751",
"z  c #5C5C5C",
"x  c #636363",
"c  c #6B6B6B",
"v  c #747474",
"b  c #7C7C7C",
"n  c #97110C",
"m  c #A80900",
"M  c #AA1F1A",
"N  c #C80D00",
"B  c #E31000",
"V  c #837632",
"C  c #877933",
"Z  c #8A7C34",
"A  c #EC6361",
"S  c #918237",
"D  c #9B8B3B",
"F  c #A3923F",
"G  c #A69341",
"H  c #B5A247",
"J  c #B6A349",
"K  c #BAA749",
"L  c #BEAB4B",
"P  c #C1AD4C",
"I  c #C7B24F",
"U  c #CBB651",
"Y  c #CDB851",
"T  c #D1BC54",
"R  c #D9C257",
"E  c #DCC558",
"W  c #DFC859",
"Q  c #E2CA5B",
"!  c #EBD35E",
"~  c #EFD660",
"^  c #F3DA62",
"/  c #F8DF64",
"(  c #FFE567",
")  c #838383",
"_  c #8E8786",
"`  c #8C8C8C",
"'  c #949494",
"]  c #9B9B9B",
"[  c #A3A3A3",
"{  c #ABABAB",
"}  c #B1B0AF",
"|  c #B4B4B4",
" . c #B9B7B7",
".. c #BBBBBB",
"X. c #CB9897",
"o. c #EFBDBC",
"O. c #C4C4C4",
"+. c #CBCBCB",
"@. c #DBCACA",
"#. c #D3D3D3",
"$. c #DBDBDB",
"%. c gray89",
"&. c gray91",
"*. c #F4F4F4",
"=. c #F8F8F8",
/* pixels */
"& [ $.v o                                                                                                                       ",
"  & v $.] 4                                                                                                                     ",
"      h O.O.h                                                                                                                   ",
"        4 ] #.b &                                                                                                               ",
"          o v #.{ 6                                                                                                             ",
"              9  .+.h                                                                                                           ",
"                * ] $.v .                                                                                                       ",
"                  o ) &.v                                                                                                       ",
"*                 o ` { $.h                                                                                                     ",
"O.v *             & k * [ ..*                                                                                                   ",
"b #.| g                 6 #.b                                                                                                   ",
"o ] | #.x                 b #.8                                                                                                 ",
"6 ..b ) #.v o             &  .{ o                                                                                               ",
"` $.k o v #.' 4             g $.c                                                                                               ",
"{ ..*     k O...9             ) #.9                                                                                             ",
"..7         6 ] #.c o         k #...*                                                                                           ",
"6             o v #.` &       k ] +.' o                                                                                         ",
"                  k +.[ 4     c x h #.v                                                                                         ",
"                    9 ....8   9 ' 4 c #.g                                                                                       ",
"                      5 X.@.b * z ` 9 [ ..*                                           & 6 9 *                                   ",
"                        n A o.O.c h x c $.x                                     . 6 b | #.#...6                                 ",
"                        q B M _ #.#... .$.z                                 & h { +...` g 7 ..`                                 ",
"                        O w -   4 g ) ` k .                             & k  .#.] 9 &       b  .&                               ",
"o                                                                     k | #.' 9 o           k +.4                               ",
"[ 6                                                               4 ` $.[ 9 .               9 +.4                               ",
"| +.z                                                           z O...x o                   x O.*                               ",
"* ` #.k                                                     o c $.] 4                     . { ]                                 ",
"4 o ] ..&               . =               . 4 k v ] ] ] ] ] { $.` 7 &                     * O.z                                 ",
"` ` x #.6               q N 0         & k { +.+...| [ { [ [ ' | O.+...] z 4               g +.6                                 ",
"* 7 x #.6               0 m ;       g } #.] l f J T U K s #   . & 6 c [ +.+.b 4           ) ..&                                 ",
"| | #.[ o                 .     o b #.[ 8 V T / ( ( ( ( / J <         . 6 v O.O.x .       [ ]                                   ",
") ` x &                       o b #.x 3 H / ( ( ( ( ( ( ( ( G .             4 ) | 4 . o & ..b                                   ",
"                          o h { $.c > I ( ( ( ( ( ( ( ( ( ( R >                 *   v { h #.g                                   ",
"                        7 [ #.] g o Z ( ( ( ( ( ( ( ( ( ( ( Q ,                     9 [ $.+.*                                   ",
"                  . 4 ) +...g o   $ T ( ( ( ( ( ( ( ( ( ( ( G .                       * | | &                                   ",
"              & x [ +.+.c *       , Q ( ( ( ( ( ( ( ( ( ( T e                           9 #.c                                   ",
"            & [ +.[ x 4           @ P ( ( ( ( ( ( ( ( ( U 2                               b O.7                                 ",
"            h #.g                   p ! ( ( ( ( ( ( W F <                                 & O.]                                 ",
"            ` | &                   . y H E Q E L V 1 .                                     x $.z                               ",
"v v _ b b b +.] &               7 7 .   X , j v %                                           o ` +.7                             ",
"+.| ..| ....%.` &             g O.$.` 4     x %.6                 @ 2 p i t < > +             * { { &                           ",
"[ { ......O.%.x             6 O.+.*.%.#.b & & x &             > V P ! / ( ( ! R L S <           6 +.c .                         ",
"] ' ) b ) O. .h           4 { O.O.' ' ) { ' &               2 I ( ( ( ( ( ( ( ( ( ( Y 2           ) +.k c b x g 4 &             ",
"        * O.z           g ..O.9 * .     g #.6             r T ( ( ( ( ( ( ( ( ( ( ( ( Y t         * ..$.+.| O.+.+...' g 4       ",
"        9 +.6       o x #.{ 7           6 #.k           @ P ( ( ( ( ( ( ( ( ( ( ( ( ( ( K @         x +.7 o & 4 h b ..#.+.' 6 . ",
"        ` | o     4 ] #.) &             o | '           r ~ ( ( ( ( ( ( ( ( ( ( ( ( ( ( ^ e         o x *           & 6 x ..+.v ",
"      o | )   . x +.O.k                 z %.{           C ( ( ( ( ( ( ( ( ( ( ( ( ( ( ( ( d         6 | 4                 * b $.",
"      4 +.h   v #.' 4                   7 O.O.&         D ( ( ( ( ( ( ( ( ( ( ( ( ( ( ( ( V         4 +.g                     k ",
"      9 #.7 9 %.' &                   o ] =.+.*         Z ( ( ( ( ( ( ( ( ( ( ( ( ( ( ( ( s         4 +.z                       ",
"      x +.* ` %.+.g                     c } ..&         2 W ( ( ( ( ( ( ( ( ( ( ( ( ( ( / u         4 +.h                     z ",
"      ) { o { %.c .                     6 $.]           . V ^ ( ( ( ( ( ( ( ( ( ( ( ( ( T :         6 #.h                   o | ",
"      v ..o v $.)                       6 #.x             X S ! ( ( ( ( ( ( ( ( ( ( ( Q p           7 +.7                   7 #.",
"      z O.* 7 $.)                     . ` ..*               . p U ^ ( ( ( ( ( ( ( ( I y             c +.4                   b O.",
"      7 #.7   b #.k * . & o           c +.x                     # y D K T E R L D a $             o { [ .                 4 O.b ",
"      * O.x   o ` $.O.k | k       o x #.v .                           . $ > : X                   4 #.x                 o ` ..* ",
"        ] [     o b $.#...g 4 7 z { $.b o                                                         c #.4                 v #.g   ",
"        x +.6       z O.$.%.#.$.+.[ h .                                                         o } [ .               x +.x     ",
"        4 ....9       * 7 z k 7 4 .                                                             x $.g               z #.) .     ",
"          6 ..#.8                                                                             7 +.) .             z O.' &       ",
"            6 O.'                                                                             ' | &             x #.) &         ",
"              v $.4                                                                         o ) g             v $.b o           ",
"              7 #.9                                                 9 k o .                                 x #.) o             ",
"              & | b                                                 v ..b b                             o c #.v                 ",
"                b O.*                                               h +.[ {                           & ) #.c .                 "
};
