/* XPM */
static char *_[] = {
/* columns rows colors chars-per-pixel */
"64 64 106 2 ",
"   c #000000",
".  c #090401",
"X  c #0C0A02",
"o  c #0B0B0B",
"O  c #160000",
"+  c #141103",
"@  c #1A1605",
"#  c #1D1906",
"$  c #15130B",
"%  c #131313",
"&  c #1C1C1C",
"*  c #230100",
"=  c #290100",
"-  c #320100",
";  c #3E0100",
":  c #241F08",
">  c #26210A",
",  c #2A240B",
"<  c #2F290D",
"1  c #322C0E",
"2  c #3B3412",
"3  c #3C3619",
"4  c #242424",
"5  c #2C2524",
"6  c #2B2B2B",
"7  c #333333",
"8  c #3B3934",
"9  c #3B3B3B",
"0  c #6D0400",
"q  c #780500",
"w  c #453D16",
"e  c #4C441A",
"r  c #50471B",
"t  c #564C1E",
"y  c #594F1F",
"u  c #5F5422",
"i  c #695D26",
"p  c #716429",
"a  c #7B6D2E",
"s  c #7D702F",
"d  c #796D39",
"f  c #434343",
"g  c #4B4B4B",
"h  c #54524A",
"j  c #535353",
"k  c #585751",
"l  c #5C5C5C",
"z  c #636363",
"x  c #6B6B6B",
"c  c #747474",
"v  c #7C7C7C",
"b  c #97110C",
"n  c #A20800",
"m  c #B00A00",
"M  c #AA1F1A",
"N  c #E21000",
"B  c #837632",
"V  c #877933",
"C  c #8A7C34",
"Z  c #EC6361",
"A  c #918237",
"S  c #938338",
"D  c #9B8B3B",
"F  c #A3923F",
"G  c #A69341",
"H  c #B5A247",
"J  c #B6A349",
"K  c #BAA749",
"L  c #BEAB4B",
"P  c #C1AD4C",
"I  c #C7B24F",
"U  c #CBB651",
"Y  c #CDB851",
"T  c #D1BC54",
"R  c #D6C055",
"E  c #D9C257",
"W  c #DCC558",
"Q  c #DFC859",
"!  c #E2CA5B",
"~  c #EBD35E",
"^  c #EFD660",
"/  c #F3DA62",
"(  c #F8DF64",
")  c #FFE567",
"_  c #838383",
"`  c #8E8786",
"'  c #8C8C8C",
"]  c #949494",
"[  c #9B9B9B",
"{  c #A3A3A3",
"}  c #ABABAB",
"|  c #B1B0AF",
" . c #B4B4B4",
".. c #B9B7B7",
"X. c #BBBBBB",
"o. c #CB9897",
"O. c #EFBDBC",
"+. c #C4C4C4",
"@. c #CBCBCB",
"#. c #DBCACA",
"$. c #D3D3D3",
"%. c #DBDBDB",
"&. c gray89",
"*. c gray91",
"=. c #F4F4F4",
"-. c #F8F8F8",
/* pixels */
"% { %.c o                                                                                                                       ",
"  % c %.[ 4                                                                                                                     ",
"      g +.+.g                                                                                                                   ",
"        4 [ $.v %                                                                                                               ",
"          o c $.} 6                                                                                                             ",
"              9 ..@.g                                                                                                           ",
"                & [ %.c .                                                                                                       ",
"                  o _ *.c                                                                                                       ",
"&                 o ' } %.g                                                                                                     ",
"+.c &             % j & { X.&                                                                                                   ",
"v $. .f                 6 $.v                                                                                                   ",
"o [  .$.z                 v $.8                                                                                                 ",
"6 X.v _ $.c o             % ..} o                                                                                               ",
"' %.j o c $.] 4             f %.x                                                                                               ",
"} X.&     j +.X.9             _ $.9                                                                                             ",
"X.7         6 [ $.x o         j $.X.&                                                                                           ",
"6             o c $.' %       j [ @.] o                                                                                         ",
"                  j @.{ 4     x z g $.c                                                                                         ",
"                    9 X.X.8   9 ] 4 x $.f                                                                                       ",
"                      5 o.#.v & l ' 9 { X.&                                           % 6 9 &                                   ",
"                        b Z O.+.x g z x %.z                                     . 7 c  .@.$.X.6                                 ",
"                        0 N M ` $.$.X...%.l                                 % g } @.X.' g 7 X.'                                 ",
"                        O q =   4 g _ ' j .                             % j ..$.[ 9 %       v X.%                               ",
"o                                                                     j  .$.] 9 o           j @.4                               ",
"{ 6                                                               4 ' %.} 9 .               8 +.4                               ",
" .@.l                                                           l +.X.z .                   x +.&                               ",
"& ' $.j                                                     o x %.[ 4                     o } [                                 ",
"4 o [ X.%                                 . 4 j c [ [ [ [ [ } %.' 7 %                     & +.j                                 ",
"' ' z $.6                             % j } @.@.X. .} } [ { ]  .X.@.X.[ l 4               f @.6                                 ",
"& 7 z $.6                           9  .$.[ h d J T U K a @   . % 7 x { @.@._ 4           _ X.%                                 ",
" . .$.{ o                       o v $.{ 8 B T ) ) ) ) ) ( J <         . 4 c +.+.z         } [                                   ",
"_ ' z %                       o v $.z 3 H ( ) ) ) ) ) ) ) ) G .             4 _  .4 . o o X.v                                   ",
"                          o g | %.x > I ) ) ) ) ) ) ) ) ) ) E >                 &   c } g $.f                                   ",
"                        7 { $.[ f o C ) ) ) ) ) ) ) ) ) ) ) ! ,                     9 { %.@.&                                   ",
"                  . 4 _ @...f o   # T ) ) ) ) ) ) ) ) ) ) ) G .                       &  . .%                                   ",
"              % z { @.@.x &       , ! ) ) ) ) ) ) ) ) ) ) T w                           9 $.x                                   ",
"            % { $.[ x 4           + P ) ) ) ) ) ) ) ) ) U 2                               v +.7                                 ",
"            g $.f         .         i ~ ) ) ) ) ) ) Q F <                                 % +.[                                 ",
"            ' ..o       - n *       . y H Q ! W L B 1 X                                     z %.l                               ",
"c c ` v c _ @.[ %       0 N ;   7 6 .   X > h c $                                           o ' @.7                             ",
"@. .X...X.X.%.] %       ; m * f @.%.' 6     z &.6                 + 2 i u r 1 > X             & } } %                           ",
"{ } X.X.X.+.&.z           O 6 +.@.=.&.$.v % % l %             > B P ~ ( ) ) ~ E L A <           6 @.c                           ",
"[ ] _ v v +. .g           4 | +.+.] ] _ } ] %               2 I ) ) ) ) ) ) ) ) ) ) Y 2           _ @.j x v l g 4 %             ",
"        & +.z           f X.+.7 &       f $.6             e T ) ) ) ) ) ) ) ) ) ) ) ) Y r         % X.&.+. .+.@.@.X.] f 4       ",
"        9 @.6       o z $.| 7           6 $.k           + L ) ) ) ) ) ) ) ) ) ) ) ) ) ) K +         z @.7 . % 6 g v X.$.@.] 6 . ",
"        '  .o     4 [ $._ %             o  .]           e ^ ) ) ) ) ) ) ) ) ) ) ) ) ) ) / w         o l &           o 6 z X.@.c ",
"      o  ._   . l +.+.j                 z %.}           C ) ) ) ) ) ) ) ) ) ) ) ) ) ) ) ) s         6 X.4                 & _ %.",
"      4 @.g   c %.] 4                   6 +.+.%         D ) ) ) ) ) ) ) ) ) ) ) ) ) ) ) ) V         4 @.g                     j ",
"      9 $.7 9 &.] %                   o [ -.@.&         C ) ) ) ) ) ) ) ) ) ) ) ) ) ) ) ) a         4 @.l                       ",
"      l @.& ' &.@.f                     x } X.o         2 Q ) ) ) ) ) ) ) ) ) ) ) ) ) ) / y         4 @.g                     l ",
"      ' } o } &.x                       6 %.{           . B / ) ) ) ) ) ) ) ) ) ) ) ) ) R :         6 $.g                   o  .",
"      c  .o c &._                       6 $.l             X S ^ ) ) ) ) ) ) ) ) ) ) ) ! i           7 @.7                   7 $.",
"      l +.& 7 %._                     o ' X.&               X u U / ) ) ) ) ) ) ) ) I t             x @.4                   v +.",
"      7 $.7   c $.l & . & o           x @.z                     @ t D K T W E L D p #             . } { .                 4 +.v ",
"      & +.z   % _ %.X.j  .j       o z @.c .                           X # > : X                   4 $.z                 o ' X.& ",
"        [ [ .   o _ &.$...f 4 7 l } %._ o                                                         x $.6                 c $.f   ",
"        z @.6       l X.%.&.$.%.$.[ g .                                                         o | { o               z @.l     ",
"        4 X.X.9       & 8 l j 7 4 .                                                             z $.f               l $._ .     ",
"          6 X.$.7                                                                             7 @._ .             l +.] %       ",
"            6 +.] .                                                                           ]  .&             z $._ %         ",
"              c %.4                                                                         o _ f             c %.v o           ",
"              7 $.9                                                 9 j o .                                 z $._ o             ",
"              % ..v                                                 c X._ v                             o x $.c                 ",
"                v +.&                                               f @.{ }                           o _ $.x .                 "
};
