/* XPM */
static char *_[] = {
/* columns rows colors chars-per-pixel */
"64 64 108 2 ",
"   c #000000",
".  c #090401",
"X  c #0C0A02",
"o  c #0C0B0B",
"O  c #140000",
"+  c #100D02",
"@  c #141103",
"#  c #1A1605",
"$  c #1D1906",
"%  c #15130B",
"&  c #131313",
"*  c #1C1C1C",
"=  c #290100",
"-  c #340100",
";  c #3A0100",
":  c #241F08",
">  c #231717",
",  c #26210A",
"<  c #2A240B",
"1  c #2F290D",
"2  c #322C0E",
"3  c #3B3412",
"4  c #3C3619",
"5  c #242424",
"6  c #2C2524",
"7  c #2B2B2B",
"8  c #333333",
"9  c #3B3934",
"0  c #3B3B3B",
"q  c #410100",
"w  c #570200",
"e  c #6A0300",
"r  c #660E0B",
"t  c #780500",
"y  c #453D16",
"u  c #4C441A",
"i  c #50471B",
"p  c #564C1E",
"a  c #594F1F",
"s  c #5F5422",
"d  c #695D26",
"f  c #716429",
"g  c #7B6D2E",
"h  c #7D702F",
"j  c #796D39",
"k  c #434343",
"l  c #4B4B4B",
"z  c #54524A",
"x  c #535353",
"c  c #585751",
"v  c #5C5C5C",
"b  c #636363",
"n  c #6B6B6B",
"m  c #747474",
"M  c #7C7C7C",
"N  c #97110C",
"B  c #AA1F1A",
"V  c #D40E00",
"C  c #DC0F00",
"Z  c #E31000",
"A  c #837632",
"S  c #8A7C34",
"D  c #EC6361",
"F  c #918237",
"G  c #938338",
"H  c #9B8B3B",
"J  c #A3923F",
"K  c #A69341",
"L  c #B5A247",
"P  c #B6A349",
"I  c #BAA749",
"U  c #BEAB4B",
"Y  c #C1AD4C",
"T  c #C7B24F",
"R  c #CBB651",
"E  c #CDB851",
"W  c #D1BC54",
"Q  c #D9C257",
"!  c #DCC558",
"~  c #DFC859",
"^  c #E2CA5B",
"/  c #EBD35E",
"(  c #EFD660",
")  c #F3DA62",
"_  c #F8DF64",
"`  c #FFE567",
"'  c #838383",
"]  c #8E8786",
"[  c #8C8C8C",
"{  c #949494",
"}  c #9B9B9B",
"|  c #A3A3A3",
" . c #ABABAB",
".. c #B1B0AF",
"X. c #B4B4B4",
"o. c #B9B7B7",
"O. c #BBBBBB",
"+. c #CB9897",
"@. c #EFBDBC",
"#. c #C4C4C4",
"$. c #CBCBCB",
"%. c #DBCACA",
"&. c #D3D3D3",
"*. c #DBDBDB",
"=. c gray89",
"-. c gray91",
";. c #F4F4F4",
":. c #F8F8F8",
/* pixels */
"& | *.m o                                                                                                                       ",
"  & m *.} 5                                                                                                                     ",
"      l #.#.l                                                                                                                   ",
"        5 } &.M &                                                                                                               ",
"          o m &. .7                                                                                                             ",
"              0 o.$.l                                                                                                           ",
"                * } *.m .                                                                                                       ",
"                  o ' -.m                                                                                                       ",
"*                 o [  .*.l                                                                                                     ",
"#.m *             & x * | O.*                                                                                                   ",
"M &.X.k                 7 &.M                                                                                                   ",
"o } X.&.b                 M &.9                                                                                                 ",
"7 O.M ' &.m o             * X.| o                                                                                               ",
"[ *.x o m &.{ 5             k *.n                                                                                               ",
" .O.*     x #.O.0             ' &.0                                                                                             ",
"O.8         7 } &.n o         x &.O.*                                                                                           ",
"7             o m &.[ &       x } #.{ o                                                                                         ",
"                  x $.| 5     n b l &.m                                                                                         ",
"                    0 O.O.0   0 { 5 n &.k                                                                                       ",
"                      6 +.%.M * v { 0 | O.*                                           & 7 0 *                                   ",
"                        N D @.#.n l b n *.b                                     . 8 m X.&.&.O.7                                 ",
"                        e Z B ] &.&.O.o.*.v                                 * l  .$.O.[ k 8 O.[                                 ",
"                        O t =   5 k ' [ x .                             o x O.&.} 0 *       M O.&                               ",
"o                                                                     x X.&.{ 0 .           x $.5                               ",
"| 7                                                               5 [ *.| 0 .               9 #.5                               ",
"X.$.v                                                           v #.O.b o                   n #.*                               ",
"* [ &.x                                                     o n *.} 5                     o | }                                 ",
"5 o } O.&                                 . 5 x m } } } } }  .*.[ 8 &                     * #.v                                 ",
"[ [ b &.7                             o x  .$.$.O.X.|  .| | { X.#.$.O.} v 5               k $.7                                 ",
"* 8 b &.7                           k X.&.} c j P W R I g #   . & 7 n | $.$.M 5           ' O.&                                 ",
"X.X.&.| o                       o M &.| 9 A W ` ` ` ` ` _ P 1         . 7 m #.#.b         | }                                   ",
"' [ b &                       o M &.b 4 P _ ` ` ` ` ` ` ` ` K .             5 ' X.5 . o & O.M                                   ",
"                          o l  .*.n , T ` ` ` ` ` ` ` ` ` ` Q ,                 *   m  .l &.k                                   ",
"                        8 | &.} k o S ` ` ` ` ` ` ` ` ` ` ` ^ <                     0 | *.$.*                                   ",
"                  . 5 ' $.O.k o   $ W ` ` ` ` ` ` ` ` ` ` ` K .                       * X.X.&                                   ",
"              * v | $.$.n *       < ^ ` ` ` ` ` ` ` ` ` ` W y                           0 &.n                                   ",
"            o | &.| n 5           @ Y ` ` ` ` ` ` ` ` ` R 3                               M #.8                                 ",
"            l &.k                   d / ` ` ` ` ` ` ~ J 1                                 & #.}                                 ",
"            { X.o                   . a L ~ ^ ! U A 2 X                                     b *.v                               ",
"m m ] M M M $.} &               8 7 .   X , z m %                                           o [ $.8                             ",
"$.X.O.X.O.O.=.[ &             k $.*.[ 7     b =.7                 @ 3 d s i 1 , +             *  . .&                           ",
"|  .O.O.O.#.=.b             7 #.$.;.=.&.M & & v &             , A Y / _ ` ` / Q U F 1           7 $.n .                         ",
"} { ' M ' #.o.l           5  .#.#.{ { '  .{ &               3 T ` ` ` ` ` ` ` ` ` ` E 3           ' $.x n M b k 5 &             ",
"        * #.v           k O.#.0 *       k &.7             u W ` ` ` ` ` ` ` ` ` ` ` ` E i         * O.*.$.X.#.$.$.O.{ k 5       ",
"        0 $.7       o b &. .8           7 &.c           @ U ` ` ` ` ` ` ` ` ` ` ` ` ` ` I @         b $.8 o & 5 l ' O.&.$.{ 7 . ",
"        [ X.o     5 } &.M *             o X.{           u ( ` ` ` ` ` ` ` ` ` ` ` ` ` ` ) y         o v *           o 7 b O.$.m ",
"      o X.'   . v $.#.x                 v =. .          S ` ` ` ` ` ` ` ` ` ` ` ` ` ` ` ` h         7 o.5                 * M *.",
"      5 $.l   m *.{ 5                   7 #.#.&         H ` ` ` ` ` ` ` ` ` ` ` ` ` ` ` ` A         5 $.k                     x ",
"      0 &.7 k =.{ &                   o } :.$.*         S ` ` ` ` ` ` ` ` ` ` ` ` ` ` ` ` g         5 $.v                       ",
"      v $.* [ =.$.k                     n  .O.o         3 ~ ` ` ` ` ` ` ` ` ` ` ` ` ` ` _ a         5 $.l                     v ",
"      ]  .o  .=.n       . q             7 *.|           . A ) ` ` ` ` ` ` ` ` ` ` ` ` ` W :         7 &.l                   o X.",
"      m o.o m *.'       w V -           7 &.v             X G ( ` ` ` ` ` ` ` ` ` ` ` ^ d           8 &.8                   8 &.",
"      v #.* 8 *.'       e C ;         o [ O.*               X s R ) ` ` ` ` ` ` ` ` T p             n $.*                   M #.",
"      8 &.8   M &.x * o > r O         n $.b                     # p H I W ! Q U H f $             .  . .o                 5 #.M ",
"      * #.b   & ] &.O.x ..x       o b &.m .                           X $ , : X                   5 &.b                 o [ O.* ",
"        } } .   o ' *.*.O.k 5 8 v  .*.M o                                                         n &.5                 m &.k   ",
"        b $.7       v O.*.=.&.*.&.} l .                                                         o ..| o               b $.v     ",
"        5 O.O.0       * 9 v x 8 5 .                                                             b &.k               v &.' .     ",
"          7 O.&.0                                                                             8 $.' .             v #.{ &       ",
"            7 #.{                                                                             { X.*             b &.' &         ",
"              m *.5                                                                         o ' k             m *.M o           ",
"              8 $.0                                                 0 x o .                                 b &.' o             ",
"              o o.M                                                 m O.M M                             o n &.m                 ",
"                M $.5                                               l $.|  .                          o ' &.n .                 "
};
