/* XPM */
static char *_[] = {
/* columns rows colors chars-per-pixel */
"64 64 97 2 ",
"   c #000000",
".  c #080701",
"X  c #0C0A03",
"o  c #0B0B0B",
"O  c #170000",
"+  c #100D02",
"@  c #141103",
"#  c #1A1605",
"$  c #1D1906",
"%  c #15130B",
"&  c #131313",
"*  c #1C1C1C",
"=  c #290100",
"-  c #241F08",
";  c #26210A",
":  c #2A240A",
">  c #2F290D",
",  c #312B0E",
"<  c #3B3412",
"1  c #3C3619",
"2  c #242424",
"3  c #2C2524",
"4  c #2B2B2B",
"5  c #333333",
"6  c #3B3934",
"7  c #3B3B3B",
"8  c #6A0300",
"9  c #780500",
"0  c #453D16",
"q  c #4C441A",
"w  c #50471B",
"e  c #544B1D",
"r  c #594F1F",
"t  c #5F5422",
"y  c #665A25",
"u  c #695D26",
"i  c #716429",
"p  c #7B6D2E",
"a  c #7D702F",
"s  c #796D39",
"d  c #444444",
"f  c #4B4B4B",
"g  c #54524A",
"h  c #535353",
"j  c #585751",
"k  c #5B5B5B",
"l  c #636363",
"z  c #6C6C6C",
"x  c #747474",
"c  c #7C7C7C",
"v  c #97110C",
"b  c #AA1F1A",
"n  c #E31000",
"m  c #837531",
"M  c #867833",
"N  c #EC6361",
"B  c #918237",
"V  c #9A8A3B",
"C  c #A3923F",
"Z  c #A69441",
"A  c #B5A247",
"S  c #B6A348",
"D  c #BAA749",
"F  c #BEAB4B",
"G  c #C1AD4C",
"H  c #C7B24F",
"J  c #CBB651",
"K  c #CDB851",
"L  c #D2BC54",
"P  c #D9C257",
"I  c #DCC558",
"U  c #E1CA5B",
"Y  c #EAD25E",
"T  c #EFD660",
"R  c #F3DA62",
"E  c #F8DF64",
"W  c #FFE567",
"Q  c #838383",
"!  c #8E8786",
"~  c #8D8D8D",
"^  c #949494",
"/  c #9B9B9B",
"(  c #A3A3A3",
")  c #AAAAAA",
"_  c #B1B0AF",
"`  c #B3B3B3",
"'  c #B9B7B7",
"]  c #BBBBBB",
"[  c #CB9897",
"{  c #EFBDBC",
"}  c #C4C4C4",
"|  c #CBCBCB",
" . c #DBCACA",
".. c #D3D3D3",
"X. c #DADADA",
"o. c gray89",
"O. c gray91",
/* pixels */
"& ( X.x o                                                                                                                       ",
"  & x X.( 2                                                                                                                     ",
"      f } } f                                                                                                                   ",
"        2 / ..c &                                                                                                               ",
"          o x ..) 4                                                                                                             ",
"              7 ' | f                                                                                                           ",
"                * / X.x .                                                                                                       ",
"                  o Q O.x                                                                                                       ",
"*                 o ~ ) X.f                                                                                                     ",
"} z *             & h * ( } *                                                                                                   ",
"c ..' d                 5 | x .                                                                                                 ",
"o / ` ..l                 c X.5                                                                                                 ",
"4 ] c Q ..x o             & ' ) o                                                                                               ",
"~ X.j o x ..^ 2             d X.z                                                                                               ",
") ' *     h } ' 7             Q ..7                                                                                             ",
"} 5         4 ( ..z .         h ..] *                                                                                           ",
"4             o x ..~ &       j / | ^ o                                                                                         ",
"                  h | ( 2     z l f ..x                                                                                         ",
"                    7 ] ' 7   7 ^ 4 z ..d                                                                                       ",
"                      3 [  .c * k ~ 5 ( } *                                           & 4 7 *                                   ",
"                        v N { } z f l x X.l                                     . 5 x ` ....] 4                                 ",
"                        8 n b ! | ..' ` X.j                                 & h ) | } ~ d 5 ] ~                                 ",
"                        O 9 =   2 f Q ~ h o                             o h ] ../ 7 &       c ' &                               ",
"o                                                                     h ` ..^ 7 .           h | 2                               ",
"( 4                                                               2 ~ X.( 7 o               7 | 2                               ",
"` | k                                                           k } ' l o                   l } *                               ",
"* ~ X.f                                                     o z X.^ 2                     . ) /                                 ",
"2 & / ] &                                 . 2 h x / ^ ( ^ ( ) X.~ 7 &                     * } k                                 ",
"~ ~ l ..4                             o j ) | | ] ` ( ) ( ( ^ ` ] | ] / k 2               d | 4                                 ",
"* 4 z ..4                           d ` ../ j s S L J D p #   . & 5 z ( | | c 2           Q } &                                 ",
"` ` ../ o                       o Q ..( 6 m L W W W W W W S >         . 4 x } } l         ( /                                   ",
"Q ~ l &                       o x ..l 1 A E W W W W W W W W Z .             2 Q _ 4 . o & ] x                                   ",
"                          o f ) X.z ; H W W W W W W W W W W P ;                 *   x ) h | 7                                   ",
"                        5 ( ../ d . B W W W W W W W W W W W U :                     7 ( X.| 2                                   ",
"                  . 4 Q | ' d o   + F W W W W W W W W W W W Z .                       * ` ` o                                   ",
"              * k ( | | z *         y R W W W W W W W W W L 0                           d ..z                                   ",
"            & ( ..( l 4             + S W W W W W W W W J <                               c } 5                                 ",
"            f ..d                     e Y W W W W W I C >                                 & } /                                 ",
"            ~ ` o         o           X V I U I F m , .                                     l X.k                               ",
"x x ~ c x c | ( &       & ^ f           X : g x %                                           o ~ | 5                             ",
"} ` ] ` ' ' o.~ &       4 X.k               l o.4                 @ < t t e > ; +             * ) ) &                           ",
"( ) ] ] } } o.l         4 ..5               & k &             ; M G Y W W W Y P F B >           4 | z                           ",
"( ^ Q c c } ` h         4 X.z                               < H W W W W W W W W W W K <           Q | h z x l d 2 &             ",
"        * } k           . / | Q h 4 *                     q L W W W W W W W W W W W W K w         * } X.| ' } | | ] ^ d 2       ",
"        7 | 4             * ( | | | } k                 @ G W W W W W W W W W W W W W W D @         l } 5 o & 2 f Q ' ..| ^ 4 . ",
"        ~ ` o               o * 2 5 / (                 q T W W W W W W W W W W W W W W R 0         o l *           o 4 l ] | x ",
"      o ` Q                         Q _ .               M W W W W W W W W W W W W W W W W a         4 ' 2                 * c X.",
"      2 | f                         x _ o               , Z R W W W W W W W W W W W W W W M         2 | d                     k ",
"      7 X.5                         j X.7                 X m T W W W W W W W W W W W W W p         2 | k                       ",
"      k | *                         * } ' 2                 . u Y W W W W W W W W W W W E r         2 | f                     k ",
"      ~ ` .                           7 .._ 5 o                 u Y W W W W W W W W W W L -         4 ..f                   o ` ",
"      x ` o                             h | X.] ( c *             a R W W W W W W W W U u           5 ..5                   5 ..",
"      k } *                               2 z / ) ) 4             X a R W W W W W W H e             z | 2                   x | ",
"      5 ..5                                                         X M L I P F V i $             . ) ( .                 2 } c ",
"      * } l                                                             $ ; ; X                   2 ..l                 o ~ ' * ",
"        / (                                                                                       z ..4                 c ..d   ",
"        l | 5                                                                                   o _ ( o               l | k     ",
"        2 ] ` 7                                                                                 l ..d               k ..Q .     ",
"          4 ' ..5                                                                             5 | Q .             k | ^ &       ",
"            4 | ^ .                                                                           ^ ' &             l | Q &         ",
"              x X.2                                                                         o Q d             x X.c o           ",
"              5 ..7                                                 5 j o .                                 l ..Q o             ",
"              o ` c                                                 x ] Q c                             o z ..x                 ",
"                c } *                                               d | ( )                           o Q ..z .                 "
};
